<svg width="207" height="203" viewBox="0 0 207 203" fill="none" xmlns="http://www.w3.org/2000/svg">
<path d="M46.3527 129.67H4.91992V166.973H46.3527V129.67Z" fill="#F5F5F5"/>
<path d="M37.6138 145.563H13.6606C11.818 145.563 10.3242 147.057 10.3242 148.899V153.636C10.3242 155.479 11.818 156.972 13.6606 156.972H37.6138C39.4564 156.972 40.9502 155.479 40.9502 153.636V148.899C40.9502 147.057 39.4564 145.563 37.6138 145.563Z" fill="#E0E0E0"/>
<path d="M46.1231 136.732C46.1231 136.794 36.9912 136.843 25.7413 136.843C14.4913 136.843 5.35938 136.794 5.35938 136.732C5.35938 136.67 14.4913 136.622 25.7413 136.622C36.9912 136.622 46.1231 136.688 46.1231 136.732Z" fill="#E0E0E0"/>
<path d="M9.54615 133.972C9.54615 134.176 9.48586 134.374 9.37291 134.543C9.25995 134.712 9.09941 134.844 8.91157 134.922C8.72374 135 8.51705 135.02 8.31765 134.98C8.11824 134.941 7.93508 134.843 7.79132 134.699C7.64756 134.555 7.54965 134.372 7.50999 134.173C7.47032 133.973 7.49068 133.767 7.56848 133.579C7.64629 133.391 7.77804 133.231 7.94709 133.118C8.11614 133.005 8.31488 132.944 8.51819 132.944C8.79082 132.944 9.05229 133.053 9.24507 133.245C9.43785 133.438 9.54615 133.7 9.54615 133.972Z" fill="#E0E0E0"/>
<path d="M12.5793 133.972C12.5793 134.176 12.5189 134.375 12.4058 134.544C12.2926 134.713 12.1318 134.845 11.9437 134.922C11.7557 135 11.5487 135.02 11.3492 134.98C11.1497 134.94 10.9665 134.842 10.823 134.698C10.6794 134.553 10.5818 134.37 10.5427 134.17C10.5035 133.97 10.5245 133.764 10.603 133.576C10.6814 133.388 10.8139 133.228 10.9835 133.115C11.1531 133.003 11.3523 132.943 11.5558 132.944C11.6906 132.944 11.8241 132.971 11.9485 133.023C12.073 133.074 12.186 133.15 12.2811 133.246C12.3762 133.341 12.4515 133.455 12.5027 133.579C12.5539 133.704 12.5799 133.838 12.5793 133.972Z" fill="#E0E0E0"/>
<path d="M15.6204 133.972C15.6204 134.176 15.5601 134.374 15.4471 134.543C15.3342 134.712 15.1736 134.844 14.9858 134.922C14.798 135 14.5913 135.02 14.3919 134.98C14.1925 134.941 14.0093 134.843 13.8655 134.699C13.7218 134.555 13.6239 134.372 13.5842 134.173C13.5445 133.973 13.5649 133.767 13.6427 133.579C13.7205 133.391 13.8523 133.231 14.0213 133.118C14.1904 133.005 14.3891 132.944 14.5924 132.944C14.865 132.944 15.1265 133.053 15.3193 133.245C15.5121 133.438 15.6204 133.7 15.6204 133.972Z" fill="#E0E0E0"/>
<path d="M18.3094 151.58V152.081C18.3094 152.316 18.2161 152.541 18.0499 152.708C17.8837 152.874 17.6583 152.967 17.4233 152.967C17.1883 152.967 16.9629 152.874 16.7967 152.708C16.6305 152.541 16.5371 152.316 16.5371 152.081V150.109C16.5371 149.874 16.6305 149.649 16.7967 149.483C16.9629 149.317 17.1883 149.223 17.4233 149.223C17.6583 149.223 17.8837 149.317 18.0499 149.483C18.2161 149.649 18.3094 149.874 18.3094 150.109V150.468H17.729V150.061C17.729 149.79 17.6094 149.688 17.4233 149.688C17.2372 149.688 17.1131 149.79 17.1131 150.061V152.112C17.1131 152.382 17.2328 152.48 17.4233 152.48C17.6138 152.48 17.729 152.382 17.729 152.112V151.571L18.3094 151.58Z" fill="white"/>
<path d="M18.6582 149.201H19.2519V152.448H20.2312V152.993H18.6582V149.201Z" fill="white"/>
<path d="M20.4961 149.201H21.0943V152.993H20.4961V149.201Z" fill="white"/>
<path d="M23.2528 151.58V152.081C23.2718 152.205 23.2626 152.332 23.2259 152.451C23.1892 152.571 23.1259 152.681 23.0407 152.773C22.9555 152.865 22.8506 152.937 22.7339 152.983C22.6172 153.029 22.4917 153.047 22.3666 153.038C21.7818 153.038 21.4805 152.688 21.4805 152.081V150.109C21.4805 149.502 21.7818 149.157 22.3666 149.157C22.4912 149.147 22.6163 149.166 22.7327 149.212C22.849 149.257 22.9536 149.328 23.0387 149.42C23.1238 149.511 23.1872 149.621 23.2243 149.74C23.2614 149.86 23.2711 149.986 23.2528 150.109V150.468H22.6857V150.061C22.6857 149.79 22.5705 149.688 22.3799 149.688C22.1894 149.688 22.0698 149.79 22.0698 150.061V152.112C22.0698 152.382 22.1894 152.48 22.3799 152.48C22.5705 152.48 22.6857 152.382 22.6857 152.112V151.571L23.2528 151.58Z" fill="white"/>
<path d="M24.3979 151.483L24.2118 151.828V152.993H23.627V149.201H24.2207V150.853L25.0005 149.201H25.5987L24.7612 150.911L25.5898 153.016H24.9784L24.3979 151.483Z" fill="white"/>
<path d="M27.2949 152.993H26.7012V149.201H27.2949V150.827H27.9728V149.201H28.5798V152.993H27.9728V151.354H27.2949V152.993Z" fill="white"/>
<path d="M29.6074 150.796H30.4271V151.354H29.6074V152.462H30.6398V153.007H29.0137V149.214H30.6398V149.755H29.6074V150.796Z" fill="white"/>
<path d="M32.2548 152.993C32.2071 152.843 32.189 152.685 32.2017 152.528V151.93C32.2017 151.58 32.082 151.447 31.8117 151.447H31.6035V152.993H31.0098V149.201H31.8959C32.5118 149.201 32.7821 149.484 32.7821 150.087V150.388C32.8028 150.541 32.7766 150.697 32.7069 150.834C32.6373 150.972 32.5276 151.085 32.3922 151.159C32.6935 151.283 32.791 151.567 32.791 151.966V152.55C32.7828 152.701 32.8039 152.851 32.853 152.993H32.2548ZM31.6035 149.741V150.911H31.8383C32.0599 150.911 32.1972 150.814 32.1972 150.508V150.136C32.1972 149.865 32.1042 149.746 31.8915 149.746L31.6035 149.741Z" fill="white"/>
<path d="M33.7832 150.796H34.6029V151.354H33.7832V152.462H34.8156V153.007H33.1895V149.214H34.8156V149.755H33.7832V150.796Z" fill="white"/>
<path d="M58.1722 21.5791H15.0645C11.9665 21.5791 9.45508 24.0905 9.45508 27.1885V36.2097C9.45508 39.3078 11.9665 41.8192 15.0645 41.8192H58.1722C61.2702 41.8192 63.7817 39.3078 63.7817 36.2097V27.1885C63.7817 24.0905 61.2702 21.5791 58.1722 21.5791Z" fill="#E0E0E0"/>
<path d="M23.5962 32.2531V33.1392C23.5962 34.2159 23.0556 34.8318 22.0188 34.8318C20.982 34.8318 20.4414 34.2159 20.4414 33.1392V29.6389C20.4414 28.5622 20.9775 27.9463 22.0188 27.9463C23.06 27.9463 23.5962 28.5622 23.5962 29.6389V30.2902H22.5948V29.5813C22.5948 29.0983 22.3821 28.9166 22.0454 28.9166C21.7086 28.9166 21.5004 29.0983 21.5004 29.5813V33.2146C21.5004 33.6931 21.7086 33.8659 22.0454 33.8659C22.3821 33.8659 22.5948 33.6931 22.5948 33.2146V32.2531H23.5962Z" fill="white"/>
<path d="M24.2402 28.0308H25.2992V33.7909H27.0361V34.7524H24.2402V28.0308Z" fill="white"/>
<path d="M27.502 28.0308H28.5565V34.7612H27.502V28.0308Z" fill="white"/>
<path d="M32.393 32.2531V33.1392C32.393 34.2159 31.8569 34.8318 30.8157 34.8318C29.7744 34.8318 29.2383 34.2159 29.2383 33.1392V29.6389C29.2383 28.5622 29.7788 27.9463 30.8157 27.9463C31.8525 27.9463 32.393 28.5622 32.393 29.6389V30.2902H31.3917V29.5813C31.3917 29.0983 31.1834 28.9166 30.8467 28.9166C30.5099 28.9166 30.2973 29.0983 30.2973 29.5813V33.2146C30.2973 33.6931 30.5099 33.8659 30.8467 33.8659C31.1834 33.8659 31.3917 33.6931 31.3917 33.2146V32.2531H32.393Z" fill="white"/>
<path d="M34.4201 32.0806L34.0922 32.6964V34.7612H33.0332V28.0308H34.0922V30.964L35.479 28.0308H36.5336L35.0625 31.0304L36.5336 34.7612H35.448L34.4201 32.0806Z" fill="white"/>
<path d="M39.5765 34.7612H38.5176V28.0308H39.5765V30.9152H40.7773V28.0308H41.854V34.7612H40.7773V31.8767H39.5765V34.7612Z" fill="white"/>
<path d="M43.6678 30.8665H45.1211V31.828H43.6678V33.7997H45.4978V34.7612H42.6133V28.0308H45.4978V28.9923H43.6678V30.8665Z" fill="white"/>
<path d="M48.3575 34.7612C48.2692 34.496 48.236 34.2156 48.26 33.9371V32.8781C48.26 32.2534 48.0517 32.023 47.5688 32.023H47.2055V34.7612H46.1465V28.0308H47.7416C48.8404 28.0308 49.3101 28.5403 49.3101 29.5816V30.1088C49.3101 30.8 49.0886 31.252 48.6189 31.4735C49.1462 31.6951 49.319 32.2046 49.319 32.9047V33.9371C49.2994 34.2139 49.3387 34.4918 49.4342 34.7524L48.3575 34.7612ZM47.2055 29.0011V31.0703H47.6175C48.0119 31.0703 48.2511 30.8975 48.2511 30.357V29.6835C48.2511 29.2049 48.0872 28.9923 47.715 28.9923L47.2055 29.0011Z" fill="white"/>
<path d="M51.0746 30.8665H52.5279V31.828H51.0746V33.7997H52.9001V34.7612H50.0156V28.0308H52.9001V28.9923H51.0746V30.8665Z" fill="white"/>
<path d="M143.221 21.4951V64.0401V72.5783L151.449 64.0401H190.471V21.4951H143.221Z" fill="#F5F5F5"/>
<path d="M190.227 29.5723C190.227 29.6432 179.81 29.7008 166.965 29.7008C154.12 29.7008 143.703 29.6432 143.703 29.5723C143.703 29.5014 154.116 29.4438 166.965 29.4438C179.815 29.4438 190.227 29.5059 190.227 29.5723Z" fill="#E0E0E0"/>
<path d="M148.493 26.4046C148.494 26.637 148.426 26.8645 148.297 27.0581C148.169 27.2518 147.986 27.403 147.771 27.4926C147.557 27.5821 147.32 27.606 147.092 27.5612C146.864 27.5164 146.655 27.4049 146.49 27.2409C146.325 27.0768 146.213 26.8676 146.167 26.6397C146.122 26.4119 146.145 26.1755 146.233 25.9607C146.322 25.7459 146.473 25.5623 146.666 25.4331C146.859 25.3038 147.086 25.2349 147.319 25.2349C147.629 25.2349 147.927 25.358 148.147 25.5772C148.367 25.7964 148.492 26.094 148.493 26.4046Z" fill="#E0E0E0"/>
<path d="M151.96 26.4047C151.96 26.6373 151.891 26.8646 151.761 27.0579C151.632 27.2512 151.448 27.4017 151.233 27.4903C151.018 27.5789 150.781 27.6016 150.553 27.5556C150.325 27.5096 150.116 27.3969 149.952 27.2318C149.788 27.0667 149.677 26.8566 149.633 26.6283C149.589 26.3999 149.613 26.1636 149.703 25.9492C149.794 25.7348 149.945 25.552 150.14 25.4241C150.334 25.2961 150.562 25.2287 150.794 25.2305C151.104 25.2328 151.401 25.3576 151.619 25.5775C151.837 25.7975 151.96 26.0948 151.96 26.4047Z" fill="#E0E0E0"/>
<path d="M155.42 26.4046C155.42 26.636 155.351 26.8621 155.222 27.0545C155.094 27.2468 154.911 27.3968 154.697 27.4853C154.484 27.5738 154.249 27.597 154.022 27.5519C153.795 27.5067 153.586 27.3953 153.423 27.2317C153.259 27.0681 153.148 26.8597 153.103 26.6328C153.057 26.4059 153.081 26.1707 153.169 25.957C153.258 25.7432 153.408 25.5605 153.6 25.432C153.792 25.3035 154.018 25.2349 154.25 25.2349C154.56 25.236 154.857 25.3596 155.076 25.5788C155.295 25.7979 155.418 26.0947 155.42 26.4046Z" fill="#E0E0E0"/>
<path d="M160.302 48.2354H157.169L156.589 49.671H154.453L157.719 42.2715H159.783L163.062 49.671H160.882L160.302 48.2354ZM159.686 46.689L158.733 44.323L157.785 46.689H159.686Z" fill="#E0E0E0"/>
<path d="M163.643 42.2715H167.143C169.598 42.2715 171.277 43.6982 171.277 45.9712C171.277 48.2443 169.598 49.671 167.143 49.671H163.643V42.2715ZM167.059 48.0006C168.317 48.0006 169.163 47.2518 169.163 45.9712C169.163 44.6907 168.317 43.9419 167.059 43.9419H165.73V48.0006H167.059Z" fill="#E0E0E0"/>
<path d="M171.867 49.002L172.554 47.4556C173.285 47.922 174.132 48.1751 175 48.1867C175.864 48.1867 176.205 47.943 176.205 47.5841C176.205 46.41 171.996 47.2695 171.996 44.518C171.996 43.1887 173.072 42.1165 175.275 42.1165C176.21 42.1011 177.134 42.3237 177.96 42.7634L177.313 44.3186C176.687 43.9616 175.982 43.7652 175.261 43.747C174.375 43.747 174.069 44.0439 174.069 44.4116C174.069 45.5459 178.265 44.6996 178.265 47.4246C178.265 48.714 177.189 49.8173 174.987 49.8173C173.891 49.8441 172.81 49.5615 171.867 49.002Z" fill="#E0E0E0"/>
<path d="M190.793 161.177C189.878 163.024 188.436 164.557 186.649 165.584C184.862 166.61 182.81 167.083 180.755 166.942C178.699 166.802 176.731 166.055 175.1 164.796C173.468 163.536 172.248 161.821 171.592 159.868C170.936 157.914 170.875 155.81 171.416 153.821C171.957 151.833 173.075 150.05 174.63 148.697C176.185 147.345 178.106 146.484 180.151 146.225C182.195 145.965 184.27 146.318 186.114 147.238C188.583 148.466 190.462 150.625 191.34 153.239C192.217 155.853 192.02 158.708 190.793 161.177Z" fill="#F5F5F5"/>
<path d="M188.579 160.074C187.878 161.48 186.776 162.646 185.413 163.424C184.049 164.203 182.485 164.56 180.919 164.45C179.352 164.339 177.854 163.767 176.613 162.804C175.372 161.842 174.445 160.533 173.948 159.043C173.452 157.554 173.408 155.95 173.823 154.435C174.239 152.921 175.094 151.564 176.281 150.536C177.468 149.507 178.933 148.855 180.491 148.66C182.049 148.465 183.63 148.736 185.034 149.44C186.914 150.38 188.344 152.029 189.009 154.023C189.673 156.017 189.519 158.194 188.579 160.074Z" fill="#EBEBEB"/>
<path d="M188.687 159.848C188.735 159.526 188.815 159.21 188.926 158.904C189.307 157.479 189.298 155.978 188.9 154.558C188.709 153.902 188.435 153.274 188.084 152.688C187.701 152.041 187.223 151.456 186.667 150.951C186.375 150.681 186.063 150.435 185.732 150.215C185.391 149.989 185.034 149.789 184.664 149.617C184.293 149.441 183.909 149.293 183.516 149.174C183.134 149.068 182.745 148.991 182.351 148.944C181.97 148.895 181.587 148.878 181.203 148.891C180.835 148.899 180.468 148.934 180.104 148.997C179.432 149.113 178.777 149.314 178.155 149.595C176.817 150.213 175.672 151.183 174.841 152.4C174.486 152.909 174.318 153.215 174.273 153.197C174.328 152.868 174.452 152.554 174.637 152.276C175.076 151.477 175.659 150.767 176.356 150.18C177.403 149.299 178.659 148.703 180.003 148.447C180.391 148.372 180.785 148.326 181.181 148.31C181.594 148.29 182.007 148.304 182.417 148.35C182.843 148.397 183.264 148.478 183.676 148.594C184.099 148.711 184.514 148.859 184.916 149.037C185.317 149.223 185.702 149.441 186.068 149.688C186.424 149.927 186.76 150.194 187.074 150.486C187.376 150.767 187.655 151.072 187.907 151.398C188.153 151.708 188.374 152.037 188.567 152.382C188.93 153.015 189.204 153.695 189.383 154.403C189.538 155.017 189.618 155.648 189.622 156.281C189.631 157.189 189.472 158.09 189.152 158.94C188.922 159.573 188.722 159.866 188.687 159.848Z" fill="#E0E0E0"/>
<path d="M180.167 161.164L179.564 162.432L178.456 161.896L179.037 160.682C178.064 160.177 177.254 159.409 176.697 158.466L177.96 157.403C178.383 158.154 178.994 158.783 179.732 159.228L180.619 157.372C179.529 156.486 178.346 155.404 179.112 153.827C179.679 152.648 181.022 152.055 182.874 152.693L183.472 151.461L184.584 151.993L184.021 153.171C184.796 153.601 185.458 154.209 185.953 154.944L184.739 156.047C184.362 155.489 183.877 155.013 183.313 154.647L182.404 156.539C183.499 157.425 184.659 158.484 183.906 160.052C183.339 161.2 182.014 161.794 180.167 161.164ZM181.416 155.715L182.178 154.137C181.522 153.987 181.137 154.199 180.96 154.58C180.783 154.961 181.004 155.342 181.416 155.715ZM182.041 159.317C182.227 158.927 182.01 158.559 181.598 158.165L180.858 159.698C181.487 159.844 181.868 159.671 182.041 159.33V159.317Z" fill="#E0E0E0"/>
<path d="M198.098 201.228C198.098 201.29 155.096 201.343 102.059 201.343C49.0219 201.343 6.01172 201.29 6.01172 201.228C6.01172 201.166 48.9909 201.113 102.059 201.113C155.127 201.113 198.098 201.162 198.098 201.228Z" fill="#263238"/>
<path d="M119.281 85.5114L118.275 126.328C118.107 133.272 116.436 143.431 105.474 142.66C96.0144 141.278 93.8255 132.19 93.9939 125.712C94.0737 122.642 94.1313 120.081 94.118 119.762C94.118 119.762 83.7498 118.53 83.2535 108.242C83.0143 103.261 83.351 92.9686 83.7675 83.6549C83.986 78.8326 86.0119 74.2693 89.4421 70.8727C92.8723 67.4762 97.4554 65.4955 102.28 65.3245L103.272 65.2891C114.012 65.515 119.817 74.7755 119.281 85.5114Z" fill="#FFE7C5"/>
<path d="M94.1189 119.762C94.1189 119.762 100.628 119.913 107.411 115.332C107.411 115.332 104.407 122.979 94.0879 122.421L94.1189 119.762Z" fill="#EB996E"/>
<path d="M101.164 88.5028C101.359 88.7199 102.582 87.8072 104.306 87.8249C106.029 87.8426 107.279 88.711 107.469 88.5205C107.562 88.423 107.363 88.0376 106.818 87.6344C106.08 87.1018 105.193 86.815 104.283 86.8146C103.385 86.806 102.508 87.089 101.784 87.6211C101.257 88.0198 101.075 88.4053 101.164 88.5028Z" fill="#263238"/>
<path d="M100.834 92.4238C100.843 92.7866 100.994 93.1314 101.254 93.3847C101.514 93.638 101.862 93.7797 102.225 93.7796C102.403 93.788 102.581 93.7605 102.748 93.6988C102.915 93.6371 103.068 93.5425 103.198 93.4206C103.327 93.2987 103.431 93.1519 103.503 92.9891C103.575 92.8262 103.614 92.6506 103.617 92.4725C103.607 92.1097 103.457 91.7649 103.197 91.5116C102.937 91.2583 102.588 91.1166 102.225 91.1167C102.047 91.1084 101.87 91.1358 101.703 91.1975C101.536 91.2592 101.383 91.3538 101.253 91.4757C101.123 91.5976 101.019 91.7444 100.947 91.9072C100.875 92.0701 100.837 92.2458 100.834 92.4238Z" fill="#263238"/>
<path d="M96.417 100.311C96.417 100.222 95.4289 100.089 93.8294 99.9383C93.4218 99.9118 93.0363 99.8453 92.9432 99.575C92.8961 99.1578 92.9764 98.7361 93.1736 98.3654C93.5192 97.3729 93.8781 96.3316 94.2592 95.2638C95.7612 90.833 96.8335 87.1686 96.6563 87.111C96.479 87.0534 95.1099 90.607 93.6079 95.0511C93.2445 96.1441 92.8989 97.1912 92.571 98.1926C92.4381 98.6578 92.19 99.1895 92.4204 99.7877C92.4847 99.9279 92.5799 100.052 92.6989 100.15C92.8178 100.248 92.9574 100.318 93.1072 100.355C93.3335 100.409 93.5659 100.432 93.7984 100.426C95.4023 100.43 96.4126 100.399 96.417 100.311Z" fill="#263238"/>
<path d="M102.14 82.0603C102.291 82.4502 103.682 82.2109 105.326 82.3571C106.97 82.5033 108.317 82.9154 108.521 82.5565C108.614 82.3837 108.37 82.0248 107.82 81.6703C107.099 81.2237 106.279 80.9605 105.432 80.9038C104.589 80.8282 103.739 80.9622 102.96 81.2937C102.366 81.5551 102.074 81.8742 102.14 82.0603Z" fill="#263238"/>
<path d="M85.4556 82.4013C85.624 82.7203 86.9798 82.4234 88.6103 82.4323C90.2409 82.4411 91.579 82.7026 91.7651 82.3835C91.8449 82.2329 91.5879 81.9405 91.0296 81.6746C90.2768 81.3406 89.4604 81.1743 88.6369 81.1872C87.8057 81.1825 86.9829 81.3531 86.2221 81.6879C85.655 81.9582 85.3803 82.2329 85.4556 82.4013Z" fill="#263238"/>
<path d="M118.71 93.1772C118.888 93.093 125.72 90.8289 125.747 97.8828C125.773 104.937 118.688 103.51 118.657 103.306C118.626 103.102 118.71 93.1772 118.71 93.1772Z" fill="#FFE7C5"/>
<path d="M120.818 100.625C120.849 100.625 120.942 100.709 121.146 100.807C121.441 100.925 121.771 100.925 122.067 100.807C122.812 100.532 123.432 99.3446 123.463 98.073C123.48 97.4635 123.361 96.8578 123.113 96.3006C123.045 96.0806 122.925 95.8803 122.763 95.7167C122.601 95.5531 122.402 95.4312 122.182 95.3613C122.041 95.3249 121.892 95.3391 121.76 95.4014C121.628 95.4637 121.522 95.5702 121.46 95.7025C121.367 95.8974 121.411 96.0392 121.376 96.0525C121.341 96.0658 121.221 95.9329 121.279 95.6449C121.315 95.4695 121.412 95.3126 121.553 95.2018C121.648 95.1275 121.757 95.0728 121.874 95.0409C121.99 95.0089 122.111 95.0004 122.231 95.0157C122.521 95.0723 122.792 95.2022 123.018 95.393C123.243 95.5838 123.416 95.8291 123.521 96.1057C123.827 96.7152 123.979 97.3908 123.964 98.073C123.924 99.4953 123.202 100.825 122.191 101.126C122.002 101.181 121.803 101.193 121.608 101.162C121.413 101.13 121.228 101.056 121.066 100.944C120.831 100.798 120.791 100.638 120.818 100.625Z" fill="#EB996E"/>
<path d="M128.501 82.1177C127.123 79.5788 126.893 76.6013 126.192 73.801C125.492 71.0007 123.437 67.4427 120.756 66.3749C118.385 64.9083 115.204 64.9791 113.139 66.6008C112.776 62.9188 110.366 60.7521 106.83 59.6799C103.294 58.6076 97.5249 58.9576 94.06 60.2116C91.3705 61.1775 88.743 63.2688 85.4952 66.366C84.13 67.6691 82.8734 69.0813 81.7378 70.5886L78.2773 80.0662L80.7542 85.1971C80.9004 85.5471 81.051 85.8927 81.2371 86.2383L83.2443 96.93C83.5057 94.0455 83.6874 83.9786 83.9222 81.0941C86.0991 81.1117 88.2571 80.6891 90.2666 79.8515C92.276 79.0139 94.0953 77.7787 95.6152 76.2202C97.2591 74.5276 98.5795 72.3831 100.733 71.4127C103.507 70.1677 106.714 71.2709 109.55 72.3742L109.431 72.259C110.903 73.0077 112.217 74.0321 113.303 75.2764C112.448 80.9676 112.825 86.7762 114.411 92.3086C114.65 93.1372 115.324 94.8563 116.117 95.1975C117.676 95.8666 118.159 94.2715 119.143 93.4518C119.87 92.8447 120.915 92.8049 122.05 92.8492C122.781 91.1167 123.578 88.179 124.265 85.6092C125.211 85.9423 126.222 86.0471 127.216 85.9149C126.938 85.1794 126.662 84.4409 126.387 83.6995C126.753 83.9908 127.176 84.2021 127.628 84.3198C127.856 84.3741 128.096 84.3573 128.314 84.2718C128.533 84.1863 128.72 84.0361 128.851 83.8413C129.13 83.283 128.789 82.6494 128.501 82.1177Z" fill="#263238"/>
<path d="M110.553 68.4971C110.911 68.7971 111.245 69.1261 111.55 69.4807C112.328 70.4911 112.828 71.6869 113.003 72.9501C113.144 73.8154 113.199 74.6925 113.167 75.5687C113.136 76.5169 113.021 77.5271 112.91 78.5905C112.774 79.7078 112.707 80.8325 112.711 81.958C112.718 82.5522 112.773 83.1448 112.874 83.7303C112.941 84.3605 113.169 84.9631 113.535 85.4805C113.706 85.687 113.928 85.8454 114.179 85.9402C114.43 86.0349 114.701 86.0628 114.966 86.0211C115.473 85.9457 115.94 85.7042 116.295 85.3343C116.986 84.5855 117.181 83.6151 117.381 82.7555L117.164 82.7777C117.446 83.568 117.84 84.314 118.333 84.9931C118.814 85.6164 119.514 86.0318 120.292 86.154C120.654 86.2051 121.024 86.1545 121.36 86.0078C121.671 85.8616 121.931 85.6235 122.104 85.3254C122.265 85.0575 122.352 84.7517 122.356 84.4392C122.354 84.142 122.248 83.855 122.055 83.6284L121.944 83.7214C122.528 84.446 123.259 85.038 124.089 85.4583C124.307 85.569 124.532 85.6667 124.762 85.7508C124.842 85.7812 124.923 85.805 125.006 85.8217C124.936 85.7757 124.86 85.7399 124.78 85.7153C124.63 85.6444 124.404 85.547 124.129 85.3919C123.328 84.9452 122.624 84.3426 122.06 83.6195L121.944 83.7126C122.102 83.9364 122.186 84.2033 122.186 84.4769C122.186 84.7505 122.102 85.0174 121.944 85.2412C121.784 85.5042 121.55 85.7138 121.271 85.8438C120.966 85.9731 120.632 86.0145 120.305 85.9635C119.58 85.8438 118.929 85.4485 118.488 84.8602C118.013 84.2013 117.634 83.4776 117.363 82.7112L117.226 82.3745L117.146 82.7289C116.951 83.5841 116.738 84.5013 116.109 85.1925C115.79 85.5234 115.371 85.7399 114.917 85.8084C114.694 85.8439 114.465 85.8218 114.253 85.7443C114.04 85.6668 113.851 85.5363 113.703 85.3653C113.363 84.8796 113.153 84.3154 113.092 83.7259C112.994 83.1489 112.939 82.5653 112.928 81.9801C112.921 80.8637 112.983 79.748 113.114 78.6393C113.22 77.5759 113.326 76.5612 113.349 75.5997C113.374 74.709 113.308 73.8181 113.149 72.9412C112.956 71.657 112.422 70.4482 111.603 69.4408C111.309 69.0687 110.954 68.7495 110.553 68.4971Z" fill="#455A64"/>
<path d="M85.4584 88.5687C85.6534 88.7858 86.8763 87.873 88.5999 87.8907C90.3235 87.9085 91.573 88.7769 91.7635 88.5864C91.8566 88.4889 91.6572 88.1034 91.1122 87.7002C90.376 87.1677 89.4907 86.8809 88.5822 86.8805C87.6827 86.8734 86.8049 87.1562 86.0787 87.6869C85.547 88.0857 85.3609 88.4756 85.4584 88.5687Z" fill="#263238"/>
<path d="M86.4902 91.9052C86.5006 92.2684 86.6522 92.6133 86.9129 92.8665C87.1735 93.1197 87.5226 93.2612 87.8859 93.2611C88.0634 93.2688 88.2407 93.2409 88.4072 93.1789C88.5737 93.117 88.7261 93.0223 88.8554 92.9004C88.9847 92.7785 89.0883 92.632 89.1599 92.4695C89.2316 92.3069 89.27 92.1316 89.2728 91.954C89.2636 91.5912 89.1129 91.2463 88.853 90.993C88.5931 90.7397 88.2445 90.598 87.8815 90.5981C87.7037 90.5898 87.5259 90.6173 87.3589 90.679C87.1919 90.7406 87.0389 90.8352 86.9092 90.9572C86.7794 91.0791 86.6755 91.2258 86.6035 91.3887C86.5315 91.5515 86.493 91.7272 86.4902 91.9052Z" fill="#263238"/>
<path d="M82.6446 69.4365C81.7584 70.5708 80.3672 71.5899 78.9316 71.3994C78.4137 71.2743 77.9058 71.1114 77.4118 70.912C76.8978 71.2044 76.9687 72.928 77.3099 73.4154C77.6289 73.8252 77.9816 74.2076 78.3644 74.5586C76.6497 75.4226 75.1255 74.9396 73.3398 74.2351C73.4791 75.7766 74.0212 77.2545 74.9116 78.5205C75.802 79.7865 77.0095 80.7963 78.4132 81.4485C79.2993 81.8518 80.407 82.0866 81.2489 81.5726C81.9888 81.1295 82.3079 80.2434 82.5471 79.3882C83.4322 76.3233 83.9352 73.1609 84.0448 69.9727L82.6446 69.4365Z" fill="#263238"/>
<path d="M97.9104 103.771C98.031 103.549 98.2087 103.363 98.4252 103.232C98.6417 103.101 98.8892 103.03 99.1422 103.027C99.6207 103.027 100.028 102.983 100.378 103.315C100.711 103.635 100.936 104.049 101.024 104.502C101.112 104.955 101.058 105.424 100.87 105.845C100.661 106.257 100.306 106.575 99.874 106.739C99.4422 106.903 98.9649 106.9 98.5352 106.731C97.6977 106.346 97.3654 104.188 97.9459 103.47" fill="#EB996E"/>
<path d="M97.6182 105.309C97.6872 105.439 97.7479 105.574 97.7999 105.712C97.8843 105.889 98.0035 106.047 98.1504 106.178C98.2973 106.308 98.4689 106.407 98.655 106.469C98.9326 106.55 99.2235 106.574 99.5106 106.54C99.7976 106.506 100.075 106.414 100.325 106.27C100.606 106.06 100.816 105.771 100.93 105.44C101.044 105.109 101.055 104.751 100.963 104.413C100.871 104.075 100.679 103.773 100.413 103.545C100.147 103.318 99.8184 103.176 99.4703 103.137C99.1842 103.105 98.8946 103.146 98.6283 103.255C98.3619 103.364 98.1273 103.539 97.9461 103.762C97.7061 104.077 97.581 104.465 97.5916 104.861C97.5916 105.145 97.6404 105.304 97.6182 105.304C97.5961 105.304 97.5961 105.269 97.5695 105.193C97.5351 105.085 97.5128 104.974 97.503 104.861C97.4551 104.436 97.5673 104.008 97.8176 103.66C98.0092 103.403 98.2643 103.2 98.5579 103.071C98.8515 102.942 99.1735 102.892 99.4925 102.925C99.8877 102.962 100.262 103.119 100.565 103.375C100.869 103.632 101.086 103.975 101.189 104.358C101.292 104.741 101.275 105.147 101.14 105.521C101.006 105.894 100.76 106.217 100.436 106.447C100.159 106.602 99.8517 106.698 99.5351 106.728C99.2184 106.757 98.8991 106.721 98.5974 106.62C98.3952 106.544 98.2116 106.425 98.0588 106.273C97.9059 106.12 97.7875 105.936 97.7113 105.734C97.665 105.63 97.6337 105.519 97.6182 105.406C97.6182 105.348 97.6182 105.309 97.6182 105.309Z" fill="#263238"/>
<path d="M110.63 68.4485C110.341 67.9617 109.989 67.5148 109.584 67.1192C108.443 66.0802 106.985 65.4559 105.446 65.3469C104.391 65.2721 103.331 65.3969 102.322 65.7146C101.164 66.0828 100.066 66.6172 99.0612 67.3009C96.9122 68.7232 95.0114 70.8455 92.9333 72.9945C91.9259 74.0491 90.8353 75.0211 89.6722 75.9011C88.5841 76.7264 87.373 77.3753 86.0832 77.8241C83.8692 78.5318 81.4955 78.5704 79.2597 77.9349C77.7581 77.522 76.3552 76.8107 75.1346 75.8435L74.5763 75.3739C74.4168 75.2365 74.3016 75.0991 74.1997 74.9972L73.9737 74.758C73.925 74.7048 73.8984 74.6738 73.9028 74.6694L73.9914 74.7402L74.2307 74.9618C74.337 75.0593 74.4611 75.1922 74.6206 75.3251L75.1789 75.7682C76.4073 76.6952 77.8036 77.3753 79.2907 77.7709C81.4956 78.3743 83.8288 78.3204 86.0035 77.6159C87.277 77.1712 88.473 76.5298 89.5481 75.715C90.6972 74.8378 91.7771 73.8735 92.7782 72.8306C94.8474 70.7038 96.766 68.5548 98.9548 67.1192C99.978 66.428 101.098 65.8919 102.278 65.5285C103.311 65.2113 104.395 65.0925 105.473 65.1785C107.041 65.3051 108.517 65.9668 109.655 67.0527C109.956 67.3493 110.219 67.6811 110.44 68.0408C110.502 68.1604 110.555 68.2535 110.595 68.3288C110.635 68.4041 110.635 68.444 110.63 68.4485Z" fill="#455A64"/>
<path d="M90.1621 123.178L94.0701 122.403L118.245 120.91L123.398 122.314L122.72 134.862L111.071 142.293L99.7726 142.067L92.6655 135.598L91.0926 129.178L90.1621 123.178Z" fill="#FFE7C5"/>
<path d="M156.105 142.935C154.731 140.073 153.181 137.3 151.461 134.632C148.687 130.375 144.445 127.286 139.542 125.952L120.932 120.905C120.932 120.905 119.967 139.515 107.157 139.515C94.3474 139.515 91.8528 122.071 91.8528 122.071L70.2968 130.671C69.5568 130.959 64.5588 132.687 58.7411 145.16C53.2026 157.039 50.7656 163.113 50.7656 163.113L72.9464 169.52L74.3333 189.49L73.8636 200.895L141.252 200.745L140.876 187.709L141.159 167.722L142.001 169.082L164.43 160.087C164.43 160.087 161.541 154.168 156.105 142.935Z" fill="#455A64"/>
<path d="M141.482 155.005C141.584 155.005 141.522 162.227 141.35 171.133C141.177 180.039 140.973 187.244 140.875 187.244C140.778 187.244 140.836 180.021 141.008 171.115C141.181 162.209 141.403 155.005 141.482 155.005Z" fill="#263238"/>
<path d="M69.5898 150.911C69.7029 151.147 69.7863 151.395 69.838 151.651C69.9709 152.134 70.1526 152.839 70.3652 153.707C70.7862 155.453 71.309 157.872 71.7964 160.566C72.2838 163.26 72.6294 165.715 72.8421 167.491C72.9484 168.378 73.0282 169.104 73.0681 169.605C73.1061 169.863 73.1151 170.125 73.0946 170.385C73.0066 170.139 72.9501 169.883 72.9263 169.623C72.8377 169.051 72.7269 168.351 72.594 167.527C72.3192 165.754 71.9249 163.317 71.4419 160.628C70.959 157.938 70.476 155.519 70.1127 153.765C69.9487 152.945 69.8114 152.249 69.6962 151.682C69.6321 151.43 69.5964 151.171 69.5898 150.911Z" fill="#263238"/>
<path d="M52.6628 163.676L43.6327 181.803C42.6254 183.827 42.154 186.076 42.2636 188.334C42.4285 191.723 43.8907 194.918 46.3471 197.258C48.8035 199.598 52.066 200.904 55.4586 200.904L81.3525 199.402L82.4868 187.59L62.7828 182.835L70.2488 168.719L52.6628 163.676Z" fill="#FFE7C5"/>
<path d="M62.7839 182.835C62.7839 182.92 61.8977 182.769 60.4577 182.778C58.5975 182.814 56.7543 183.14 54.9944 183.744C53.2364 184.331 51.5891 185.209 50.1205 186.34C49.0039 187.226 48.4722 187.949 48.4102 187.904C48.3482 187.86 48.5033 187.692 48.7381 187.359C49.0885 186.901 49.4832 186.478 49.9167 186.096C51.3734 184.86 53.0555 183.916 54.8704 183.318C56.6729 182.696 58.5736 182.406 60.4798 182.463C61.0545 182.484 61.6265 182.553 62.1901 182.667C62.396 182.69 62.5966 182.747 62.7839 182.835Z" fill="#EB996E"/>
<path d="M70.5634 168.577C70.4842 169.058 70.3349 169.525 70.1203 169.963C69.6965 171.047 69.2006 172.101 68.636 173.118C68.0754 174.139 67.4463 175.12 66.7529 176.056C66.4923 176.465 66.1728 176.834 65.8047 177.15C65.7205 177.088 67.0231 175.312 68.3258 172.945C69.6285 170.579 70.4659 168.541 70.5634 168.577Z" fill="#EB996E"/>
<path d="M163.51 200.842H133.105V189.366L150.714 181.927L144.183 168.24L161.808 161.15L170.413 180.292C172.411 185.852 174.454 188.493 172.713 193.553C171.809 196.181 168.069 200.842 163.51 200.842Z" fill="#FFE7C5"/>
<path d="M77.4182 186.903H82.4871C82.4871 186.903 93.9231 182.769 96.2759 183.163C98.3938 183.518 106.152 188.671 107.672 189.69C107.84 189.805 107.968 189.969 108.04 190.16C108.188 190.563 108.174 191.009 108.002 191.403C107.829 191.796 107.511 192.108 107.114 192.273L106.954 192.34L107.021 192.57C107.112 192.87 107.153 193.183 107.14 193.496C107.123 193.734 107.03 193.96 106.876 194.141C106.721 194.323 106.512 194.45 106.279 194.504C106.047 194.558 105.804 194.536 105.585 194.441C105.366 194.347 105.182 194.185 105.062 193.979L105.355 194.497C105.473 194.709 105.529 194.951 105.514 195.193L105.488 195.667C105.473 195.924 105.38 196.171 105.222 196.374C105.063 196.578 104.847 196.728 104.601 196.806C104.37 196.881 104.121 196.888 103.885 196.826C103.65 196.764 103.437 196.635 103.272 196.456C102.289 195.375 100.171 193.208 98.7261 192.969C97.1697 192.778 95.6017 192.698 94.0339 192.729C93.7135 192.732 93.4012 192.83 93.1373 193.012C92.8734 193.193 92.6702 193.45 92.554 193.749C93.4091 193.811 99.3509 196.908 101.456 198.015C101.781 198.178 102.063 198.418 102.276 198.714C102.489 199.009 102.627 199.352 102.678 199.712C102.754 200.368 102.421 201.042 101.119 200.754C98.3274 200.102 93.2984 197.789 93.2984 197.789C93.2984 197.789 90.7019 197.049 89.0226 198.233C86.6565 199.903 85.5754 200.514 83.5461 199.841C82.3062 199.431 81.117 198.881 80.0014 198.202L76.0136 197.803C76.0136 197.803 72.2474 188.352 77.4182 186.903Z" fill="#FFE7C5"/>
<path d="M92.5234 188.835C92.5234 188.879 93.3343 188.622 94.6724 188.533C96.4152 188.416 98.161 188.712 99.7673 189.399C101.374 190.085 102.795 191.141 103.915 192.481C104.369 193.049 104.794 193.641 105.187 194.253C105.125 194.066 105.04 193.888 104.934 193.722C104.676 193.255 104.379 192.811 104.048 192.392C102.937 191.004 101.499 189.914 99.8625 189.218C98.2263 188.522 96.443 188.242 94.6724 188.405C94.1397 188.449 93.6119 188.539 93.095 188.675C92.8989 188.705 92.707 188.759 92.5234 188.835Z" fill="#EB996E"/>
<path d="M93.7327 186.056C94.4603 185.837 95.2115 185.706 95.9703 185.666C97.8052 185.658 99.6052 186.168 101.163 187.137C102.711 188.129 104.12 189.321 105.355 190.682L106.507 191.901C106.64 192.062 106.788 192.211 106.95 192.344C106.838 192.171 106.712 192.008 106.573 191.856C106.321 191.551 105.949 191.112 105.474 190.585C104.257 189.18 102.844 187.958 101.278 186.956C99.6869 185.962 97.837 185.461 95.9614 185.516C95.3963 185.543 94.8374 185.645 94.2998 185.822C94.1489 185.867 94.0009 185.922 93.8568 185.985C93.777 186.021 93.7283 186.047 93.7327 186.056Z" fill="#EB996E"/>
<path d="M140.532 187.244H135.458C135.458 187.244 124.022 183.11 121.67 183.504C119.552 183.859 111.793 189.012 110.273 190.031C110.105 190.146 109.977 190.31 109.906 190.5C109.759 190.904 109.773 191.349 109.945 191.743C110.118 192.136 110.435 192.448 110.832 192.614L110.991 192.68L110.925 192.911C110.833 193.21 110.792 193.524 110.805 193.837C110.822 194.075 110.915 194.301 111.07 194.482C111.225 194.664 111.434 194.791 111.666 194.845C111.898 194.899 112.142 194.877 112.361 194.782C112.58 194.688 112.763 194.526 112.883 194.32L112.591 194.838C112.475 195.051 112.42 195.292 112.431 195.534L112.458 196.003C112.471 196.261 112.563 196.509 112.721 196.712C112.88 196.916 113.097 197.066 113.344 197.142C113.575 197.219 113.824 197.227 114.06 197.166C114.296 197.105 114.509 196.976 114.673 196.797C115.657 195.711 117.775 193.544 119.219 193.305C120.778 193.118 122.347 193.04 123.916 193.07C124.236 193.073 124.547 193.172 124.81 193.354C125.073 193.535 125.275 193.792 125.391 194.089C124.536 194.147 118.595 197.249 116.49 198.356C116.164 198.519 115.883 198.757 115.67 199.052C115.457 199.347 115.319 199.689 115.267 200.049C115.192 200.709 115.524 201.4 116.827 201.095C119.618 200.443 124.647 198.13 124.647 198.13C124.647 198.13 127.244 197.386 128.923 198.573C131.289 200.244 132.37 200.855 134.399 200.182C135.64 199.773 136.829 199.223 137.944 198.542L141.932 198.144C141.932 198.144 145.702 188.706 140.532 187.244Z" fill="#FFE7C5"/>
<path d="M125.421 189.189C125.421 189.233 124.61 188.976 123.272 188.892C121.527 188.772 119.777 189.067 118.168 189.753C116.558 190.439 115.134 191.497 114.012 192.84C113.126 193.863 112.776 194.612 112.74 194.612C112.804 194.427 112.889 194.251 112.993 194.085C113.251 193.618 113.548 193.174 113.879 192.756C114.99 191.368 116.428 190.277 118.065 189.581C119.701 188.885 121.484 188.606 123.255 188.768C123.787 188.813 124.314 188.902 124.832 189.034C125.033 189.064 125.231 189.116 125.421 189.189Z" fill="#EB996E"/>
<path d="M124.206 186.411C123.485 186.193 122.742 186.062 121.99 186.021C120.152 186.015 118.35 186.526 116.789 187.496C115.242 188.489 113.833 189.681 112.597 191.041L111.445 192.264C111.312 192.425 111.164 192.574 111.002 192.707C111.113 192.533 111.239 192.368 111.379 192.215C111.631 191.914 112.003 191.475 112.482 190.948C113.697 189.542 115.108 188.32 116.673 187.319C118.265 186.325 120.115 185.824 121.99 185.879C122.554 185.906 123.111 186.009 123.648 186.185C123.799 186.228 123.947 186.283 124.091 186.349C124.132 186.364 124.171 186.384 124.206 186.411Z" fill="#EB996E"/>
<path d="M164.293 182.724C164.266 182.764 163.606 182.281 162.41 181.727C162.113 181.595 161.785 181.448 161.417 181.324C161.049 181.2 160.664 181.076 160.247 180.956C158.426 180.475 156.525 180.365 154.66 180.633C154.217 180.708 153.827 180.766 153.455 180.868C153.106 180.945 152.761 181.041 152.423 181.156C151.173 181.564 150.46 181.967 150.438 181.927C150.59 181.808 150.757 181.709 150.934 181.63C151.128 181.515 151.331 181.416 151.541 181.333C151.811 181.207 152.087 181.097 152.369 181.001C152.71 180.875 153.058 180.769 153.411 180.682C153.812 180.575 154.219 180.49 154.629 180.425C156.521 180.127 158.455 180.237 160.301 180.748C160.721 180.881 161.125 180.992 161.484 181.147C161.824 181.275 162.157 181.423 162.481 181.59C162.786 181.727 163.039 181.887 163.269 182.033C163.466 182.144 163.655 182.266 163.836 182.401C164 182.492 164.153 182.6 164.293 182.724Z" fill="#EB996E"/>
<path d="M138.501 202.309H75.1841C74.3182 202.308 73.4858 201.974 72.8609 201.374C72.2359 200.775 71.8666 199.957 71.83 199.092L69.9292 155.515C69.9088 155.061 69.9805 154.609 70.1399 154.184C70.2992 153.759 70.543 153.371 70.8565 153.043C71.1699 152.715 71.5465 152.454 71.9636 152.276C72.3807 152.098 72.8297 152.006 73.2833 152.005H140.278C140.731 152.006 141.179 152.097 141.596 152.275C142.013 152.453 142.389 152.713 142.703 153.04C143.016 153.367 143.261 153.754 143.421 154.178C143.582 154.601 143.655 155.053 143.636 155.506L141.864 199.083C141.83 199.951 141.46 200.773 140.833 201.374C140.206 201.976 139.37 202.311 138.501 202.309Z" fill="#E0E0E0"/>
<path d="M138.5 202.309C138.704 202.295 138.909 202.272 139.111 202.238C139.703 202.125 140.254 201.853 140.702 201.449C141.067 201.125 141.357 200.725 141.552 200.278C141.747 199.83 141.842 199.345 141.832 198.857C141.876 197.696 141.928 196.36 141.987 194.847C142.226 188.812 142.567 180.084 142.992 169.295C143.099 166.595 143.211 163.772 143.329 160.827C143.387 159.356 143.449 157.854 143.506 156.325C143.506 155.944 143.551 155.55 143.537 155.178C143.514 154.801 143.426 154.43 143.276 154.083C142.975 153.373 142.43 152.795 141.739 152.453C141.391 152.279 141.017 152.166 140.631 152.121C140.25 152.09 139.838 152.121 139.434 152.121H121.569H75.1252H73.5833C73.0843 152.093 72.585 152.168 72.1167 152.342C71.655 152.521 71.2402 152.802 70.9039 153.166C70.5676 153.529 70.3186 153.964 70.1759 154.438C70.1074 154.674 70.0629 154.916 70.043 155.16C70.043 155.404 70.043 155.652 70.043 155.909C70.0652 156.414 70.0829 156.919 70.1051 157.424L70.238 160.442C70.4093 164.453 70.5806 168.4 70.752 172.281C71.0887 180.044 71.4121 187.527 71.7223 194.661C71.7622 195.547 71.7976 196.433 71.8375 197.32C71.8375 197.763 71.873 198.206 71.8951 198.649C71.8889 199.077 71.9425 199.503 72.0546 199.916C72.3042 200.726 72.8586 201.408 73.601 201.817C73.9646 202.017 74.3632 202.145 74.7752 202.194C75.1784 202.238 75.6126 202.216 76.0335 202.22H85.8744H103.536L129.106 202.256L136.058 202.278H129.106L103.536 202.313H85.8744H76.0512C75.6082 202.313 75.2094 202.313 74.7663 202.287C74.1021 202.205 73.4755 201.934 72.9622 201.504C72.4488 201.075 72.0705 200.507 71.873 199.867C71.7552 199.434 71.6986 198.987 71.7046 198.538C71.6824 198.095 71.6647 197.652 71.6426 197.209C71.6071 196.323 71.5687 195.437 71.5274 194.55C71.2128 187.417 70.8849 179.929 70.5437 172.17C70.3753 168.289 70.2025 164.342 70.0253 160.331C69.981 159.33 69.9411 158.324 69.8968 157.314L69.8303 155.798C69.817 155.541 69.817 155.284 69.8303 155.027C69.8495 154.765 69.8955 154.505 69.9677 154.252C70.1205 153.745 70.3871 153.279 70.7472 152.89C71.1074 152.502 71.5515 152.201 72.0458 152.01C72.541 151.825 73.0687 151.744 73.5966 151.771H75.1385H121.583H139.448C139.855 151.771 140.25 151.771 140.666 151.793C141.074 151.839 141.47 151.958 141.836 152.143C142.569 152.506 143.146 153.121 143.462 153.875C143.619 154.242 143.712 154.633 143.737 155.032C143.737 155.435 143.737 155.807 143.706 156.193C143.644 157.726 143.582 159.228 143.52 160.699C143.396 163.653 143.277 166.475 143.165 169.166C142.722 179.951 142.346 188.662 142.089 194.714C142.024 196.224 141.966 197.553 141.916 198.702C141.922 199.198 141.821 199.689 141.619 200.142C141.417 200.595 141.119 200.999 140.746 201.325C140.289 201.728 139.729 201.998 139.129 202.105C138.982 202.13 138.834 202.145 138.686 202.149L138.5 202.309Z" fill="#263238"/>
<path d="M110.249 177.939C110.249 178.625 110.046 179.296 109.665 179.867C109.283 180.437 108.742 180.882 108.108 181.144C107.474 181.407 106.776 181.476 106.103 181.342C105.43 181.208 104.812 180.877 104.327 180.392C103.841 179.907 103.511 179.289 103.377 178.616C103.243 177.943 103.312 177.245 103.575 176.611C103.837 175.977 104.282 175.436 104.852 175.054C105.423 174.673 106.094 174.47 106.78 174.47C107.7 174.471 108.581 174.837 109.232 175.487C109.882 176.138 110.248 177.019 110.249 177.939Z" fill="white"/>
<path d="M200.375 82.0562H136.137L136.465 127.06H143.483V137.464L152.987 127.06H200.703L200.375 82.0562Z" fill="white"/>
<path d="M200.375 82.0604C200.375 82.0604 200.375 82.3263 200.375 82.8536C200.375 83.3808 200.375 84.1828 200.402 85.2019C200.402 87.2711 200.451 90.3107 200.491 94.2098C200.557 102.03 200.655 113.289 200.779 127.056V127.149H200.686L153.01 127.171L153.089 127.135L143.59 137.543L143.39 137.761V127.06L143.506 127.175H136.35V127.06C136.239 110.852 136.133 95.5745 136.035 82.0604V81.9541H136.137L182.625 82.0073L195.736 82.0339H199.197H200.083H200.375H199.175H195.692L182.559 82.0604L136.137 82.1136L136.243 82.0073C136.345 95.5214 136.461 110.808 136.58 127.007L136.465 126.896H143.599V137.415L143.399 137.34L152.903 126.985L152.934 126.949H153.01H200.725L200.637 127.042C200.557 113.307 200.491 102.057 200.446 94.2541C200.424 90.3461 200.411 87.2977 200.402 85.2241C200.402 84.1872 200.402 83.3986 200.402 82.858C200.402 82.3174 200.375 82.0604 200.375 82.0604Z" fill="#263238"/>
<path d="M200.049 88.4051C200.049 88.4583 185.818 88.507 168.263 88.507C150.708 88.507 136.467 88.4583 136.467 88.4051C136.467 88.352 150.699 88.3032 168.263 88.3032C185.826 88.3032 200.049 88.3475 200.049 88.4051Z" fill="#263238"/>
<path d="M153.192 97.5229C153.245 97.1853 153.23 96.8406 153.149 96.5088C153.067 96.177 152.921 95.8645 152.718 95.5896C152.515 95.3146 152.26 95.0826 151.967 94.9069C151.674 94.7311 151.349 94.6152 151.011 94.5658C150.948 94.5492 150.882 94.5566 150.824 94.5865C150.793 94.6192 150.77 94.6593 150.758 94.7031C150.746 94.7469 150.745 94.7931 150.755 94.8373C150.818 95.4957 151.087 96.1175 151.524 96.6136C151.961 97.1097 152.545 97.4546 153.19 97.5989" fill="#455A64"/>
<path d="M149.563 102.31C150.216 103.656 151.155 104.563 152.324 104.611C152.555 104.611 152.732 104.466 152.955 104.452C153.084 104.483 153.209 104.53 153.326 104.593C153.387 104.619 153.454 104.634 153.521 104.636C154.722 104.572 155.747 103.727 156.437 102.314C157.397 100.333 157.1 98.2066 155.774 97.5599C155.6 97.4738 155.418 97.403 155.231 97.3482C155.017 97.2894 154.795 97.263 154.573 97.27C154.056 97.3044 153.547 97.4201 153.065 97.6129L153.001 97.6359C151.924 97.1595 151.063 97.1572 150.239 97.5599C148.898 98.1951 148.603 100.322 149.563 102.31Z" fill="#689441"/>
<path d="M149.589 100.296C149.523 100.173 149.486 100.037 149.478 99.8981C149.438 99.5636 149.478 99.2243 149.596 98.9086C149.713 98.5919 149.903 98.3073 150.15 98.0778C150.248 97.9791 150.365 97.9008 150.493 97.8477C150.493 97.8615 150.369 97.9466 150.196 98.1261C149.97 98.3585 149.795 98.6361 149.683 98.9408C149.571 99.2444 149.523 99.5681 149.543 99.8912C149.559 100.142 149.602 100.292 149.589 100.296Z" fill="#FAFAFA"/>
<path d="M149.829 101.237C149.806 101.237 149.762 101.15 149.734 101.028C149.707 100.906 149.705 100.798 149.734 100.798C149.764 100.798 149.804 100.885 149.831 101.005C149.859 101.125 149.854 101.233 149.829 101.237Z" fill="#FAFAFA"/>
<path d="M155.933 94.2852C155.933 94.3013 155.684 94.3956 155.311 94.6188C155.093 94.7498 154.885 94.8984 154.69 95.063C154.453 95.2647 154.233 95.4864 154.034 95.7258C153.838 95.9676 153.664 96.2263 153.514 96.499C153.392 96.7202 153.288 96.9511 153.203 97.1894C153.056 97.5991 153.015 97.8798 152.996 97.866C152.995 97.8017 153.002 97.7376 153.017 97.675C153.017 97.6129 153.04 97.5392 153.061 97.4449C153.081 97.3505 153.104 97.2631 153.141 97.1595C153.219 96.9127 153.318 96.6732 153.438 96.4438C153.733 95.8797 154.141 95.3816 154.635 94.9802C154.836 94.8171 155.052 94.6723 155.279 94.5475C155.373 94.49 155.466 94.4508 155.544 94.4117C155.611 94.3797 155.68 94.3513 155.751 94.3266C155.809 94.3042 155.87 94.2902 155.933 94.2852Z" fill="#263238"/>
<path d="M141.978 115.285V114.605H143.818V109.905H142.388V109.375C142.641 109.342 142.864 109.302 143.058 109.255C143.251 109.208 143.428 109.158 143.588 109.105C143.748 109.045 143.894 108.978 144.028 108.905H144.638V114.605H146.308V115.285H141.978ZM150.004 115.405C149.784 115.405 149.594 115.328 149.434 115.175C149.274 115.015 149.194 114.812 149.194 114.565C149.194 114.312 149.274 114.108 149.434 113.955C149.594 113.795 149.784 113.715 150.004 113.715C150.231 113.715 150.421 113.795 150.574 113.955C150.734 114.108 150.814 114.312 150.814 114.565C150.814 114.812 150.734 115.015 150.574 115.175C150.421 115.328 150.231 115.405 150.004 115.405ZM155.86 115.405C155.48 115.405 155.147 115.365 154.86 115.285C154.573 115.198 154.323 115.088 154.11 114.955C153.903 114.822 153.72 114.682 153.56 114.535L153.97 113.995C154.11 114.122 154.263 114.242 154.43 114.355C154.603 114.462 154.8 114.552 155.02 114.625C155.24 114.692 155.49 114.725 155.77 114.725C156.07 114.725 156.343 114.665 156.59 114.545C156.837 114.425 157.03 114.258 157.17 114.045C157.317 113.825 157.39 113.565 157.39 113.265C157.39 112.825 157.247 112.482 156.96 112.235C156.673 111.988 156.293 111.865 155.82 111.865C155.553 111.865 155.327 111.898 155.14 111.965C154.953 112.032 154.747 112.128 154.52 112.255L154.08 111.975L154.29 108.905H157.9V109.615H155.02L154.85 111.505C155.03 111.425 155.21 111.362 155.39 111.315C155.577 111.268 155.79 111.245 156.03 111.245C156.437 111.245 156.807 111.315 157.14 111.455C157.473 111.595 157.737 111.815 157.93 112.115C158.123 112.408 158.22 112.785 158.22 113.245C158.22 113.705 158.107 114.098 157.88 114.425C157.66 114.745 157.37 114.988 157.01 115.155C156.65 115.322 156.267 115.405 155.86 115.405ZM161.996 115.405C161.523 115.405 161.116 115.275 160.776 115.015C160.436 114.748 160.173 114.368 159.986 113.875C159.799 113.382 159.706 112.782 159.706 112.075C159.706 111.002 159.909 110.185 160.316 109.625C160.729 109.065 161.289 108.785 161.996 108.785C162.709 108.785 163.269 109.065 163.676 109.625C164.083 110.185 164.286 111.002 164.286 112.075C164.286 112.782 164.193 113.382 164.006 113.875C163.826 114.368 163.563 114.748 163.216 115.015C162.876 115.275 162.469 115.405 161.996 115.405ZM161.996 114.745C162.296 114.745 162.559 114.652 162.786 114.465C163.013 114.272 163.189 113.978 163.316 113.585C163.449 113.185 163.516 112.682 163.516 112.075C163.516 111.462 163.449 110.962 163.316 110.575C163.189 110.188 163.013 109.905 162.786 109.725C162.559 109.538 162.296 109.445 161.996 109.445C161.703 109.445 161.439 109.538 161.206 109.725C160.979 109.905 160.799 110.188 160.666 110.575C160.539 110.962 160.476 111.462 160.476 112.075C160.476 112.682 160.539 113.185 160.666 113.585C160.799 113.978 160.979 114.272 161.206 114.465C161.439 114.652 161.703 114.745 161.996 114.745ZM161.996 112.675C161.829 112.675 161.683 112.615 161.556 112.495C161.436 112.375 161.376 112.212 161.376 112.005C161.376 111.798 161.436 111.638 161.556 111.525C161.683 111.405 161.829 111.345 161.996 111.345C162.169 111.345 162.316 111.405 162.436 111.525C162.556 111.638 162.616 111.798 162.616 112.005C162.616 112.212 162.556 112.375 162.436 112.495C162.316 112.615 162.169 112.675 161.996 112.675Z" fill="#CFD1D2"/>
<path d="M186.192 97.5229C186.245 97.1853 186.23 96.8406 186.149 96.5088C186.067 96.177 185.921 95.8645 185.718 95.5896C185.515 95.3146 185.26 95.0826 184.967 94.9069C184.674 94.7311 184.349 94.6152 184.011 94.5658C183.948 94.5492 183.882 94.5566 183.824 94.5865C183.793 94.6192 183.77 94.6593 183.758 94.7031C183.746 94.7469 183.745 94.7931 183.755 94.8373C183.818 95.4957 184.087 96.1175 184.524 96.6136C184.961 97.1097 185.545 97.4546 186.19 97.5989" fill="#455A64"/>
<path d="M182.563 102.31C183.216 103.656 184.155 104.563 185.324 104.611C185.555 104.611 185.732 104.466 185.955 104.452C186.084 104.483 186.209 104.53 186.326 104.593C186.387 104.619 186.454 104.634 186.521 104.636C187.722 104.572 188.747 103.727 189.437 102.314C190.397 100.333 190.1 98.2066 188.774 97.5599C188.6 97.4738 188.418 97.403 188.231 97.3482C188.017 97.2894 187.795 97.263 187.573 97.27C187.056 97.3044 186.547 97.4201 186.065 97.6129L186.001 97.6359C184.924 97.1595 184.063 97.1572 183.239 97.5599C181.898 98.1951 181.603 100.322 182.563 102.31Z" fill="#689441"/>
<path d="M182.589 100.296C182.523 100.173 182.486 100.037 182.478 99.8981C182.438 99.5636 182.478 99.2243 182.596 98.9086C182.713 98.5919 182.903 98.3073 183.15 98.0778C183.248 97.9791 183.365 97.9008 183.493 97.8477C183.493 97.8615 183.369 97.9466 183.196 98.1261C182.97 98.3585 182.795 98.6361 182.683 98.9408C182.571 99.2444 182.523 99.5681 182.543 99.8912C182.559 100.142 182.602 100.292 182.589 100.296Z" fill="#FAFAFA"/>
<path d="M182.829 101.237C182.806 101.237 182.762 101.15 182.734 101.028C182.707 100.906 182.705 100.798 182.734 100.798C182.764 100.798 182.804 100.885 182.831 101.005C182.859 101.125 182.854 101.233 182.829 101.237Z" fill="#FAFAFA"/>
<path d="M188.933 94.2852C188.933 94.3013 188.684 94.3956 188.311 94.6188C188.093 94.7498 187.885 94.8984 187.69 95.063C187.453 95.2647 187.233 95.4864 187.034 95.7258C186.838 95.9676 186.664 96.2263 186.514 96.499C186.392 96.7202 186.288 96.9511 186.203 97.1894C186.056 97.5991 186.015 97.8798 185.996 97.866C185.995 97.8017 186.002 97.7376 186.017 97.675C186.017 97.6129 186.04 97.5392 186.061 97.4449C186.081 97.3505 186.104 97.2631 186.141 97.1595C186.219 96.9127 186.318 96.6732 186.438 96.4438C186.733 95.8797 187.141 95.3816 187.635 94.9802C187.836 94.8171 188.052 94.6723 188.279 94.5475C188.373 94.49 188.466 94.4508 188.544 94.4117C188.611 94.3797 188.68 94.3513 188.751 94.3266C188.809 94.3042 188.87 94.2902 188.933 94.2852Z" fill="#263238"/>
<path d="M174.978 115.285V114.605H176.818V109.905H175.388V109.375C175.641 109.342 175.864 109.302 176.058 109.255C176.251 109.208 176.428 109.158 176.588 109.105C176.748 109.045 176.894 108.978 177.028 108.905H177.638V114.605H179.308V115.285H174.978ZM183.004 115.405C182.784 115.405 182.594 115.328 182.434 115.175C182.274 115.015 182.194 114.812 182.194 114.565C182.194 114.312 182.274 114.108 182.434 113.955C182.594 113.795 182.784 113.715 183.004 113.715C183.231 113.715 183.421 113.795 183.574 113.955C183.734 114.108 183.814 114.312 183.814 114.565C183.814 114.812 183.734 115.015 183.574 115.175C183.421 115.328 183.231 115.405 183.004 115.405ZM189 115.405C188.527 115.405 188.12 115.275 187.78 115.015C187.44 114.748 187.177 114.368 186.99 113.875C186.803 113.382 186.71 112.782 186.71 112.075C186.71 111.002 186.913 110.185 187.32 109.625C187.733 109.065 188.293 108.785 189 108.785C189.713 108.785 190.273 109.065 190.68 109.625C191.087 110.185 191.29 111.002 191.29 112.075C191.29 112.782 191.197 113.382 191.01 113.875C190.83 114.368 190.567 114.748 190.22 115.015C189.88 115.275 189.473 115.405 189 115.405ZM189 114.745C189.3 114.745 189.563 114.652 189.79 114.465C190.017 114.272 190.193 113.978 190.32 113.585C190.453 113.185 190.52 112.682 190.52 112.075C190.52 111.462 190.453 110.962 190.32 110.575C190.193 110.188 190.017 109.905 189.79 109.725C189.563 109.538 189.3 109.445 189 109.445C188.707 109.445 188.443 109.538 188.21 109.725C187.983 109.905 187.803 110.188 187.67 110.575C187.543 110.962 187.48 111.462 187.48 112.075C187.48 112.682 187.543 113.185 187.67 113.585C187.803 113.978 187.983 114.272 188.21 114.465C188.443 114.652 188.707 114.745 189 114.745ZM189 112.675C188.833 112.675 188.687 112.615 188.56 112.495C188.44 112.375 188.38 112.212 188.38 112.005C188.38 111.798 188.44 111.638 188.56 111.525C188.687 111.405 188.833 111.345 189 111.345C189.173 111.345 189.32 111.405 189.44 111.525C189.56 111.638 189.62 111.798 189.62 112.005C189.62 112.212 189.56 112.375 189.44 112.495C189.32 112.615 189.173 112.675 189 112.675ZM194.996 115.405C194.523 115.405 194.116 115.275 193.776 115.015C193.436 114.748 193.173 114.368 192.986 113.875C192.799 113.382 192.706 112.782 192.706 112.075C192.706 111.002 192.909 110.185 193.316 109.625C193.729 109.065 194.289 108.785 194.996 108.785C195.709 108.785 196.269 109.065 196.676 109.625C197.083 110.185 197.286 111.002 197.286 112.075C197.286 112.782 197.193 113.382 197.006 113.875C196.826 114.368 196.563 114.748 196.216 115.015C195.876 115.275 195.469 115.405 194.996 115.405ZM194.996 114.745C195.296 114.745 195.559 114.652 195.786 114.465C196.013 114.272 196.189 113.978 196.316 113.585C196.449 113.185 196.516 112.682 196.516 112.075C196.516 111.462 196.449 110.962 196.316 110.575C196.189 110.188 196.013 109.905 195.786 109.725C195.559 109.538 195.296 109.445 194.996 109.445C194.703 109.445 194.439 109.538 194.206 109.725C193.979 109.905 193.799 110.188 193.666 110.575C193.539 110.962 193.476 111.462 193.476 112.075C193.476 112.682 193.539 113.185 193.666 113.585C193.799 113.978 193.979 114.272 194.206 114.465C194.439 114.652 194.703 114.745 194.996 114.745ZM194.996 112.675C194.829 112.675 194.683 112.615 194.556 112.495C194.436 112.375 194.376 112.212 194.376 112.005C194.376 111.798 194.436 111.638 194.556 111.525C194.683 111.405 194.829 111.345 194.996 111.345C195.169 111.345 195.316 111.405 195.436 111.525C195.556 111.638 195.616 111.798 195.616 112.005C195.616 112.212 195.556 112.375 195.436 112.495C195.316 112.615 195.169 112.675 194.996 112.675Z" fill="#CFD1D2"/>
<path d="M139.101 86.8146C139.571 86.8146 139.951 86.398 139.951 85.8841C139.951 85.3702 139.571 84.9536 139.101 84.9536C138.631 84.9536 138.25 85.3702 138.25 85.8841C138.25 86.398 138.631 86.8146 139.101 86.8146Z" fill="#E0E0E0"/>
<path d="M141.62 86.8146C142.09 86.8146 142.471 86.398 142.471 85.8841C142.471 85.3702 142.09 84.9536 141.62 84.9536C141.15 84.9536 140.77 85.3702 140.77 85.8841C140.77 86.398 141.15 86.8146 141.62 86.8146Z" fill="#E0E0E0"/>
<path d="M144.128 86.8146C144.598 86.8146 144.979 86.398 144.979 85.8841C144.979 85.3702 144.598 84.9536 144.128 84.9536C143.658 84.9536 143.277 85.3702 143.277 85.8841C143.277 86.398 143.658 86.8146 144.128 86.8146Z" fill="#E0E0E0"/>
<path d="M195.858 121.344H140.389V121.619H195.858V121.344Z" fill="#263238"/>
<path d="M199.888 90.1334C203.265 90.1334 206.003 87.3958 206.003 84.0189C206.003 80.6419 203.265 77.9043 199.888 77.9043C196.511 77.9043 193.773 80.6419 193.773 84.0189C193.773 87.3958 196.511 90.1334 199.888 90.1334Z" fill="#689441"/>
<path d="M202.269 82.5072L201.398 81.6362L197.501 85.5338L198.372 86.4048L202.269 82.5072Z" fill="white"/>
<path d="M198.373 81.6266L197.502 82.4976L201.4 86.3951L202.271 85.5241L198.373 81.6266Z" fill="white"/>
<path d="M79.1855 9.33691V53.3396H119.373L128.058 60.0568V53.3396V51.616V9.33691H79.1855Z" fill="white"/>
<path d="M79.1854 9.33655H80.0715H82.6769L92.5975 9.30997L128.044 9.26123H128.142V9.35871C128.142 23.4709 128.142 40.1132 128.142 57.8632V60.3134L127.956 60.1716L119.302 53.4323L119.373 53.4545H79.1854H79.0879V53.357C79.11 40.0645 79.1233 29.076 79.1366 21.3796C79.1366 17.5425 79.1366 14.5339 79.1632 12.4825C79.1632 11.4634 79.1632 10.6791 79.1632 10.1474C79.1632 9.6157 79.1632 9.35428 79.1632 9.35428C79.1632 9.35428 79.1632 9.63785 79.1632 10.1696C79.1632 10.7013 79.1632 11.4988 79.1632 12.5223C79.1632 14.5782 79.1632 17.5956 79.1854 21.4372C79.1854 29.1203 79.2164 40.1088 79.2341 53.3393L79.1411 53.2462H119.329H119.369L119.4 53.2684L128.084 59.9811L127.898 60.0742V57.8587C127.898 40.1088 127.898 23.4665 127.898 9.35428L128 9.45619L92.6064 9.40302L82.6636 9.38086H80.0361H79.3582L79.1854 9.33655Z" fill="#263238"/>
<path d="M127.787 17.6935C127.787 17.7644 117.011 17.8264 103.727 17.8264C90.4438 17.8264 79.668 17.7644 79.668 17.6935C79.668 17.6226 90.4394 17.5605 103.727 17.5605C117.016 17.5605 127.787 17.6181 127.787 17.6935Z" fill="#263238"/>
<path d="M84.641 14.4144C84.641 14.6552 84.5693 14.8907 84.4351 15.0907C84.3009 15.2907 84.1102 15.4463 83.8873 15.5376C83.6645 15.629 83.4195 15.6519 83.1835 15.6036C82.9475 15.5553 82.7312 15.4379 82.5622 15.2664C82.3931 15.0948 82.2789 14.8768 82.2341 14.6402C82.1893 14.4035 82.2159 14.1589 82.3105 13.9374C82.4051 13.7159 82.5634 13.5275 82.7654 13.3963C82.9674 13.265 83.2038 13.1968 83.4447 13.2003C83.7636 13.205 84.0678 13.3349 84.2917 13.5621C84.5156 13.7893 84.641 14.0954 84.641 14.4144Z" fill="#E0E0E0"/>
<path d="M88.2172 14.4143C88.2172 14.6546 88.1458 14.8895 88.0122 15.0892C87.8786 15.2889 87.6888 15.4446 87.4667 15.5363C87.2446 15.6281 87.0003 15.6518 86.7646 15.6046C86.529 15.5574 86.3127 15.4414 86.1431 15.2711C85.9735 15.1009 85.8582 14.8842 85.8119 14.6484C85.7655 14.4126 85.7902 14.1683 85.8827 13.9466C85.9753 13.7248 86.1316 13.5355 86.3319 13.4026C86.5321 13.2698 86.7672 13.1993 87.0075 13.2002C87.1668 13.2002 87.3244 13.2316 87.4715 13.2927C87.6185 13.3538 87.7521 13.4433 87.8644 13.5561C87.9768 13.6689 88.0658 13.8027 88.1264 13.95C88.1869 14.0973 88.2177 14.255 88.2172 14.4143Z" fill="#E0E0E0"/>
<path d="M91.8031 14.4142C91.8031 14.6544 91.7319 14.8891 91.5985 15.0887C91.4651 15.2884 91.2755 15.444 91.0537 15.5359C90.8318 15.6278 90.5877 15.6518 90.3522 15.605C90.1167 15.5581 89.9004 15.4425 89.7306 15.2727C89.5608 15.1029 89.4452 14.8866 89.3983 14.6511C89.3515 14.4156 89.3755 14.1715 89.4674 13.9496C89.5593 13.7278 89.7149 13.5382 89.9146 13.4048C90.1142 13.2714 90.3489 13.2002 90.5891 13.2002C90.911 13.2002 91.2198 13.3281 91.4475 13.5558C91.6752 13.7835 91.8031 14.0923 91.8031 14.4142Z" fill="#E0E0E0"/>
<path d="M119.041 33.6754C119.111 36.3677 118.381 39.0204 116.943 41.2977C115.505 43.5749 113.424 45.3744 110.963 46.4684C108.502 47.5624 105.771 47.9017 103.117 47.4433C100.463 46.985 98.0051 45.7497 96.0535 43.8936C94.1019 42.0376 92.7448 39.6443 92.1539 37.0167C91.563 34.389 91.7649 31.6452 92.7341 29.1323C93.7032 26.6195 95.3961 24.4506 97.5983 22.9002C99.8006 21.3499 102.413 20.4877 105.106 20.4227C108.711 20.3323 112.205 21.6777 114.818 24.1631C117.431 26.6484 118.95 30.0701 119.041 33.6754Z" fill="#689441"/>
<path d="M115.788 33.755C115.841 35.8071 115.285 37.8291 114.189 39.5651C113.094 41.3011 111.508 42.6731 109.632 43.5075C107.757 44.3419 105.676 44.6013 103.653 44.2528C101.63 43.9044 99.7553 42.9637 98.267 41.5498C96.7787 40.1359 95.7431 38.3123 95.2914 36.3098C94.8397 34.3072 94.9921 32.2157 95.7294 30.2998C96.4666 28.3839 97.7555 26.7297 99.4331 25.5465C101.111 24.3633 103.101 23.7042 105.154 23.6527C106.516 23.6161 107.871 23.8486 109.143 24.3368C110.415 24.825 111.579 25.5593 112.566 26.4977C113.554 27.4361 114.347 28.5602 114.9 29.8055C115.453 31.0508 115.754 32.3929 115.788 33.755Z" fill="#689441"/>
<g opacity="0.3">
<path d="M115.788 33.4273C115.642 33.0258 115.539 32.6099 115.482 32.1867C115.222 31.0775 114.793 30.015 114.21 29.0363C113.808 28.3693 113.333 27.7495 112.792 27.1887C112.174 26.5451 111.473 25.9851 110.71 25.5227C110.3 25.2717 109.872 25.0525 109.429 24.8669C108.969 24.6662 108.493 24.5032 108.007 24.3795C107.507 24.2476 106.997 24.1543 106.483 24.1004C105.951 24.0508 105.417 24.0389 104.883 24.0649C104.349 24.0973 103.817 24.1683 103.293 24.2776C102.293 24.4927 101.333 24.8588 100.443 25.3632C100.025 25.5985 99.6235 25.8636 99.2427 26.1563C98.5366 26.702 97.9037 27.3364 97.3596 28.0438C96.8866 28.6627 96.4825 29.3313 96.1544 30.0377C95.6809 31.075 95.3714 32.1797 95.2373 33.3121C95.2266 33.7376 95.1717 34.1608 95.0733 34.5749C94.9363 34.1613 94.888 33.7235 94.9315 33.2899C94.9479 32.0982 95.1869 30.9201 95.636 29.8162C95.9473 29.0498 96.3473 28.3226 96.8279 27.6495C97.3873 26.8768 98.0474 26.1824 98.7908 25.5847C99.1921 25.2561 99.6188 24.9598 100.067 24.6985C100.532 24.4244 101.018 24.1874 101.52 23.9896C102.041 23.7839 102.577 23.6194 103.124 23.4978C103.689 23.3765 104.262 23.298 104.839 23.2629C105.414 23.2354 105.99 23.2502 106.562 23.3073C107.119 23.3666 107.67 23.4703 108.211 23.6174C108.733 23.7676 109.243 23.9587 109.735 24.189C110.209 24.3953 110.665 24.6398 111.1 24.9201C112.612 25.8768 113.854 27.2056 114.706 28.7793C115.27 29.8214 115.636 30.9585 115.788 32.1335C115.88 32.5598 115.88 33.001 115.788 33.4273Z" fill="black"/>
</g>
<g opacity="0.3">
<path d="M106.753 40.1621L106.82 41.9655L105.207 42.0275L105.14 40.2552C103.706 40.2649 102.298 39.8702 101.077 39.1165L101.888 37.1182C102.839 37.7278 103.932 38.0805 105.061 38.1417L104.959 35.4477C103.151 35.0844 101.126 34.5616 101.037 32.2575C100.975 30.5472 102.158 29.0319 104.693 28.6464L104.626 26.874L106.239 26.812L106.306 28.5843C107.461 28.6052 108.596 28.8998 109.616 29.4439L108.889 31.46C108.114 31.048 107.264 30.7949 106.39 30.7156L106.492 33.4538C108.3 33.8039 110.289 34.34 110.378 36.5997C110.44 38.2613 109.27 39.7589 106.753 40.1621ZM104.866 33.0728L104.777 30.7865C103.931 31.0125 103.612 31.491 103.63 32.0227C103.647 32.5544 104.148 32.9 104.866 33.0949V33.0728ZM107.79 36.8523C107.768 36.2896 107.289 36.0016 106.585 35.7845L106.669 37.9999C107.471 37.8227 107.812 37.3929 107.812 36.8745L107.79 36.8523Z" fill="black"/>
</g>
<path d="M115.993 33.5557C115.993 33.5557 115.993 33.4981 115.993 33.3829C115.993 33.2677 115.967 33.0949 115.945 32.8822L115.909 32.5144C115.909 32.3815 115.86 32.2353 115.829 32.0714C115.773 31.7053 115.69 31.344 115.581 30.9902C115.308 30.0125 114.888 29.0818 114.336 28.2298C113.537 26.9784 112.482 25.9096 111.241 25.0935C110.001 24.2773 108.602 23.732 107.136 23.4932C105.289 23.2007 103.398 23.404 101.655 24.0825C101.183 24.2634 100.724 24.4765 100.281 24.7206C99.8423 24.9738 99.4218 25.2581 99.0231 25.5713C98.6121 25.889 98.2227 26.2339 97.8578 26.6037C97.5005 26.9949 97.1675 27.4078 96.8609 27.8399C96.232 28.7273 95.7502 29.7102 95.4341 30.751C94.7651 32.9055 94.8211 35.22 95.5937 37.3396C95.9601 38.3638 96.4881 39.3226 97.1577 40.1798C97.4832 40.5966 97.8355 40.9918 98.2123 41.3628C98.5949 41.7139 98.9989 42.0409 99.4219 42.3421C100.24 42.9292 101.145 43.3865 102.103 43.6979C103.876 44.2913 105.775 44.4045 107.606 44.0258C109.2 43.6926 110.693 42.9899 111.966 41.9743C113.019 41.1406 113.903 40.1134 114.571 38.948C115.08 38.0771 115.455 37.1346 115.683 36.1522C115.775 35.7927 115.84 35.4269 115.878 35.0577C115.9 34.8982 115.927 34.752 115.94 34.6147C115.953 34.4773 115.94 34.3532 115.94 34.2425C115.94 34.0342 115.94 33.8658 115.967 33.7418C115.964 33.6857 115.964 33.6295 115.967 33.5734C115.973 33.6293 115.973 33.6859 115.967 33.7418V34.2469C115.967 34.3577 115.967 34.4817 115.967 34.6191C115.967 34.7564 115.936 34.9027 115.918 35.0622C115.902 35.4282 115.859 35.7926 115.789 36.1522C115.576 37.1562 115.21 38.1215 114.704 39.0145C113.492 41.1718 111.565 42.8389 109.256 43.7286C106.947 44.6182 104.4 44.6747 102.054 43.8884C101.572 43.7289 101.101 43.538 100.645 43.3168C100.182 43.0812 99.7382 42.8117 99.3156 42.5104C98.8804 42.2075 98.466 41.8759 98.0749 41.5179C97.6896 41.139 97.3299 40.7349 96.9982 40.3083C96.3093 39.4345 95.7675 38.4543 95.3943 37.4061C94.6042 35.2393 94.5482 32.8729 95.2348 30.6712C95.5572 29.6072 96.051 28.603 96.6969 27.6981C97.0083 27.2565 97.3487 26.8361 97.716 26.4398C98.0894 26.0651 98.486 25.7144 98.9035 25.3896C99.3127 25.0654 99.7435 24.7693 100.193 24.5035C100.637 24.2593 101.097 24.0461 101.571 23.8654C103.345 23.1884 105.267 22.9942 107.14 23.3027C108.631 23.5508 110.052 24.1139 111.308 24.9543C112.564 25.7948 113.627 26.8933 114.425 28.1766C114.973 29.0436 115.386 29.9895 115.648 30.9814C115.75 31.3403 115.827 31.706 115.878 32.0758C115.9 32.2353 115.931 32.3815 115.945 32.5189C115.958 32.6562 115.945 32.7759 115.945 32.8866C115.945 33.0993 115.953 33.2677 115.971 33.3917C115.984 33.4456 115.991 33.5005 115.993 33.5557Z" fill="#263238"/>
<path d="M132.456 14.0047C135.034 11.4265 135.034 7.24636 132.456 4.66813C129.878 2.08991 125.698 2.08991 123.119 4.66814C120.541 7.24636 120.541 11.4265 123.119 14.0047C125.698 16.5829 129.878 16.5829 132.456 14.0047Z" fill="#689441"/>
<path d="M130.36 7.70457L129.42 6.76465L125.212 10.9724L126.152 11.9123L130.36 7.70457Z" fill="white"/>
<path d="M126.153 6.75978L125.213 7.69971L129.421 11.9074L130.361 10.9675L126.153 6.75978Z" fill="white"/>
<path d="M66.8477 115.584H66.8033V62.1528H0.119141V115.731H58.1632L66.8477 124.419V115.584Z" fill="white"/>
<path d="M66.8482 115.584C66.8482 115.584 66.8482 115.775 66.8482 116.156C66.8482 116.537 66.8482 117.104 66.8482 117.848C66.8482 119.346 66.8482 121.557 66.8482 124.419V124.499L66.7905 124.441L58.0928 115.766H58.1283L0.0841863 115.801H0V115.717C0 101.166 0 85.1797 0 68.4355V62.064H0.0886164H66.7773H66.8526V62.1349C66.8526 78.2897 66.826 91.6133 66.8216 100.918C66.8216 105.57 66.8216 109.217 66.7994 111.707C66.7994 112.952 66.7994 113.923 66.7994 114.561C66.7994 114.884 66.7994 115.132 66.7994 115.301C66.7994 115.469 66.7994 115.562 66.7994 115.566C66.7949 115.478 66.7949 115.389 66.7994 115.301C66.7994 115.132 66.7994 114.884 66.7994 114.561C66.7994 113.909 66.7994 112.952 66.7994 111.707C66.7994 109.217 66.7994 105.57 66.7773 100.918C66.7773 91.6133 66.7773 78.2897 66.7462 62.1349L66.8216 62.2102H0.132925L0.225973 62.1171V68.4134C0.225973 85.1575 0.225973 101.144 0.225973 115.695L0.137356 115.611L58.1814 115.646L66.857 124.344L66.7994 124.37C66.8393 118.73 66.8482 115.823 66.8482 115.584Z" fill="#263238"/>
<path d="M66.8039 68.1121C66.8039 68.1653 51.8764 68.2051 33.4618 68.2051C15.0472 68.2051 0.115234 68.1653 0.115234 68.1121C0.115234 68.0589 15.0427 68.019 33.4618 68.019C51.8808 68.019 66.8039 68.0545 66.8039 68.1121Z" fill="#263238"/>
<path d="M3.9884 65.2188C3.98927 65.3857 3.94053 65.549 3.84837 65.6882C3.7562 65.8273 3.62476 65.9359 3.47075 66.0001C3.31675 66.0644 3.14711 66.0814 2.98339 66.0491C2.81968 66.0168 2.66927 65.9365 2.55126 65.8185C2.43326 65.7005 2.35299 65.5501 2.32065 65.3864C2.28831 65.2226 2.30535 65.053 2.36962 64.899C2.43389 64.745 2.54247 64.6136 2.6816 64.5214C2.82072 64.4292 2.98409 64.3805 3.15097 64.3814C3.37271 64.3825 3.58504 64.4711 3.74183 64.6279C3.89863 64.7847 3.98723 64.997 3.9884 65.2188Z" fill="#E0E0E0"/>
<path d="M6.47277 65.2188C6.47365 65.3855 6.42502 65.5487 6.33305 65.6877C6.24108 65.8267 6.10991 65.9353 5.95616 65.9997C5.80241 66.0641 5.633 66.0814 5.46941 66.0494C5.30581 66.0174 5.15539 65.9376 5.03721 65.8201C4.91903 65.7025 4.83841 65.5525 4.80557 65.3891C4.77272 65.2257 4.78913 65.0562 4.85272 64.9021C4.9163 64.748 5.0242 64.6162 5.16274 64.5235C5.30128 64.4308 5.46422 64.3813 5.63091 64.3813C5.85342 64.3813 6.06688 64.4694 6.22464 64.6264C6.38239 64.7833 6.4716 64.9963 6.47277 65.2188Z" fill="#E0E0E0"/>
<path d="M8.11725 66.0607C8.5822 66.0607 8.95911 65.6838 8.95911 65.2188C8.95911 64.7539 8.5822 64.377 8.11725 64.377C7.6523 64.377 7.27539 64.7539 7.27539 65.2188C7.27539 65.6838 7.6523 66.0607 8.11725 66.0607Z" fill="#E0E0E0"/>
<path d="M66.8486 70.1459C70.3332 70.1459 73.1581 67.321 73.1581 63.8364C73.1581 60.3517 70.3332 57.5269 66.8486 57.5269C63.3639 57.5269 60.5391 60.3517 60.5391 63.8364C60.5391 67.321 63.3639 70.1459 66.8486 70.1459Z" fill="#689441"/>
<path d="M69.3121 62.2715L68.416 61.3755L64.3931 65.3984L65.2892 66.2944L69.3121 62.2715Z" fill="white"/>
<path d="M65.2847 61.3779L64.3887 62.2739L68.4115 66.2968L69.3076 65.4007L65.2847 61.3779Z" fill="white"/>
<path d="M30.9847 69.3662L35.9162 74.4528L42.815 72.84L44.2152 79.7831L50.888 82.1581L48.3137 88.76L52.6426 94.365L46.9091 98.5212L47.5206 105.58L40.4489 105.978L37.148 112.248L30.9847 108.756L24.8169 112.248L21.5159 105.978L14.4443 105.58L15.0558 98.5212L9.32227 94.365L13.6556 88.76L11.0769 82.1581L17.7497 79.7831L19.1499 72.84L26.0487 74.4528L30.9847 69.3662Z" fill="#689441"/>
<g opacity="0.3">
<path d="M28.2771 88.4191C28.2771 86.9791 27.7765 86.5892 26.9745 86.5892C26.1725 86.5892 25.6718 87.0323 25.6718 88.1666V89.1945H23.2969V88.3084C23.2969 85.7473 24.5774 84.2852 27.0454 84.2852C29.5133 84.2852 30.7894 85.7473 30.7894 88.3084V88.7204C30.7894 90.4352 30.2444 91.5074 29.0171 92.0125C30.2755 92.5575 30.7894 93.745 30.7894 95.3711V96.6251C30.7894 99.1861 29.5133 100.648 27.0454 100.648C24.5774 100.648 23.2969 99.1861 23.2969 96.6251V95.2958H25.6718V96.7801C25.6718 97.9233 26.1769 98.3575 26.9745 98.3575C27.772 98.3575 28.2771 97.972 28.2771 96.5542V95.2958C28.2771 93.8115 27.7765 93.262 26.6333 93.262H25.787V90.9757H26.7707C27.7056 90.9757 28.2771 90.5681 28.2771 89.2876V88.4191Z" fill="black"/>
<path d="M32.2793 88.3259C32.2793 85.7649 33.6086 84.3027 36.0943 84.3027C38.58 84.3027 39.9092 85.7649 39.9092 88.3259V96.6426C39.9092 99.2037 38.58 100.666 36.0943 100.666C33.6086 100.666 32.2793 99.2037 32.2793 96.6426V88.3259ZM34.7916 96.8021C34.7916 97.9453 35.2967 98.3795 36.0943 98.3795C36.8918 98.3795 37.3969 97.9364 37.3969 96.8021V88.1664C37.3969 87.0233 36.8962 86.5891 36.0943 86.5891C35.2923 86.5891 34.7916 87.0321 34.7916 88.1664V96.8021Z" fill="black"/>
</g>
<g opacity="0.3">
<path d="M40.5753 81.152C40.5595 81.0556 40.5648 80.957 40.591 80.8629C40.6171 80.7688 40.6634 80.6815 40.7266 80.6071C40.7898 80.5327 40.8685 80.4729 40.9571 80.4319C41.0458 80.3909 41.1422 80.3696 41.2399 80.3696C41.3376 80.3696 41.434 80.3909 41.5227 80.4319C41.6113 80.4729 41.69 80.5327 41.7532 80.6071C41.8164 80.6815 41.8627 80.7688 41.8888 80.8629C41.915 80.957 41.9203 81.0556 41.9045 81.152V82.6053C41.9203 82.7017 41.915 82.8004 41.8888 82.8944C41.8627 82.9885 41.8164 83.0758 41.7532 83.1503C41.69 83.2247 41.6113 83.2845 41.5227 83.3255C41.434 83.3665 41.3376 83.3877 41.2399 83.3877C41.1422 83.3877 41.0458 83.3665 40.9571 83.3255C40.8685 83.2845 40.7898 83.2247 40.7266 83.1503C40.6634 83.0758 40.6171 82.9885 40.591 82.8944C40.5648 82.8004 40.5595 82.7017 40.5753 82.6053V81.152ZM41.0184 82.6408C41.0184 82.8357 41.0981 82.9155 41.2443 82.9155C41.3905 82.9155 41.4747 82.8357 41.4747 82.6408V81.1166C41.4747 80.9216 41.3861 80.8374 41.2443 80.8374C41.1025 80.8374 41.0184 80.9216 41.0184 81.1166V82.6408ZM42.9945 80.4741H43.4066L41.6342 84.9049H41.2222L42.9945 80.4741ZM42.773 82.7737C42.7572 82.6773 42.7625 82.5787 42.7887 82.4846C42.8148 82.3905 42.8611 82.3032 42.9243 82.2288C42.9875 82.1544 43.0662 82.0946 43.1548 82.0536C43.2434 82.0126 43.3399 81.9913 43.4376 81.9913C43.5352 81.9913 43.6317 82.0126 43.7204 82.0536C43.809 82.0946 43.8877 82.1544 43.9509 82.2288C44.0141 82.3032 44.0604 82.3905 44.0865 82.4846C44.1127 82.5787 44.118 82.6773 44.1022 82.7737V84.227C44.118 84.3234 44.1127 84.422 44.0865 84.5161C44.0604 84.6102 44.0141 84.6975 43.9509 84.7719C43.8877 84.8464 43.809 84.9062 43.7204 84.9472C43.6317 84.9882 43.5352 85.0094 43.4376 85.0094C43.3399 85.0094 43.2434 84.9882 43.1548 84.9472C43.0662 84.9062 42.9875 84.8464 42.9243 84.7719C42.8611 84.6975 42.8148 84.6102 42.7887 84.5161C42.7625 84.422 42.7572 84.3234 42.773 84.227V82.7737ZM43.2161 84.2625C43.2161 84.4574 43.2958 84.5372 43.442 84.5372C43.5882 84.5372 43.6724 84.4574 43.6724 84.2625V82.7383C43.6724 82.5433 43.5838 82.4635 43.442 82.4635C43.3002 82.4635 43.2161 82.5433 43.2161 82.7383V84.2625Z" fill="black"/>
</g>
<path d="M27.3363 88.88C27.3363 87.44 26.8311 87.0501 26.0336 87.0501C25.236 87.0501 24.7309 87.4932 24.7309 88.6275V89.6554H22.3516V88.7693C22.3516 86.2127 23.6321 84.7505 26.1001 84.7505C28.568 84.7505 29.8486 86.2127 29.8486 88.7693V89.1813C29.8486 90.8961 29.2991 91.9683 28.0762 92.4734C29.3346 93.0229 29.8486 94.2103 29.8486 95.832V97.0904C29.8486 99.647 28.568 101.109 26.1001 101.109C23.6321 101.109 22.3516 99.647 22.3516 97.0904V95.7611H24.7309V97.2455C24.7309 98.3886 25.2316 98.8228 26.0336 98.8228C26.8356 98.8228 27.3363 98.4329 27.3363 97.0151V95.7611C27.3363 94.2724 26.8311 93.7274 25.688 93.7274H24.8461V91.4411H25.8386C26.778 91.4411 27.3496 91.029 27.3496 89.7485L27.3363 88.88Z" fill="white"/>
<path d="M31.3359 88.7868C31.3359 86.2302 32.6652 84.7681 35.1553 84.7681C37.6455 84.7681 38.9703 86.2302 38.9703 88.7868V97.108C38.9703 99.6646 37.641 101.127 35.1553 101.127C32.6696 101.127 31.3359 99.6646 31.3359 97.108V88.7868ZM33.8527 97.2675C33.8527 98.4106 34.3533 98.8449 35.1553 98.8449C35.9573 98.8449 36.458 98.4018 36.458 97.2675V88.6273C36.458 87.4842 35.9529 87.05 35.1553 87.05C34.3578 87.05 33.8527 87.493 33.8527 88.6273V97.2675Z" fill="white"/>
<path d="M39.6339 81.152C39.6181 81.0556 39.6234 80.957 39.6496 80.8629C39.6757 80.7688 39.722 80.6815 39.7852 80.6071C39.8484 80.5327 39.9271 80.4729 40.0157 80.4319C40.1043 80.3909 40.2008 80.3696 40.2985 80.3696C40.3961 80.3696 40.4926 80.3909 40.5813 80.4319C40.6699 80.4729 40.7485 80.5327 40.8118 80.6071C40.875 80.6815 40.9213 80.7688 40.9474 80.8629C40.9735 80.957 40.9789 81.0556 40.9631 81.152V82.6053C40.9789 82.7017 40.9735 82.8004 40.9474 82.8944C40.9213 82.9885 40.875 83.0758 40.8118 83.1503C40.7485 83.2247 40.6699 83.2845 40.5813 83.3255C40.4926 83.3665 40.3961 83.3877 40.2985 83.3877C40.2008 83.3877 40.1043 83.3665 40.0157 83.3255C39.9271 83.2845 39.8484 83.2247 39.7852 83.1503C39.722 83.0758 39.6757 82.9885 39.6496 82.8944C39.6234 82.8004 39.6181 82.7017 39.6339 82.6053V81.152ZM40.0769 82.6408C40.0769 82.8357 40.1567 82.9155 40.3029 82.9155C40.4491 82.9155 40.5333 82.8357 40.5333 82.6408V81.1166C40.5333 80.9216 40.4447 80.8374 40.3029 80.8374C40.1611 80.8374 40.0769 80.9216 40.0769 81.1166V82.6408ZM42.0531 80.4741H42.4652L40.6928 84.9049H40.2808L42.0531 80.4741ZM41.8316 82.7737C41.8158 82.6773 41.8211 82.5787 41.8473 82.4846C41.8734 82.3905 41.9197 82.3032 41.9829 82.2288C42.0461 82.1544 42.1248 82.0946 42.2134 82.0536C42.302 82.0126 42.3985 81.9913 42.4962 81.9913C42.5938 81.9913 42.6903 82.0126 42.779 82.0536C42.8676 82.0946 42.9462 82.1544 43.0095 82.2288C43.0727 82.3032 43.119 82.3905 43.1451 82.4846C43.1712 82.5787 43.1766 82.6773 43.1608 82.7737V84.227C43.1766 84.3234 43.1712 84.422 43.1451 84.5161C43.119 84.6102 43.0727 84.6975 43.0095 84.7719C42.9462 84.8464 42.8676 84.9062 42.779 84.9472C42.6903 84.9882 42.5938 85.0094 42.4962 85.0094C42.3985 85.0094 42.302 84.9882 42.2134 84.9472C42.1248 84.9062 42.0461 84.8464 41.9829 84.7719C41.9197 84.6975 41.8734 84.6102 41.8473 84.5161C41.8211 84.422 41.8158 84.3234 41.8316 84.227V82.7737ZM42.2746 84.2625C42.2746 84.4574 42.3544 84.5372 42.5006 84.5372C42.6468 84.5372 42.731 84.4574 42.731 84.2625V82.7383C42.731 82.5433 42.6424 82.4635 42.5006 82.4635C42.3588 82.4635 42.2746 82.5433 42.2746 82.7383V84.2625Z" fill="white"/>
<path d="M44.25 73.1765L44.538 72.5208C44.8461 72.7191 45.2039 72.8266 45.5704 72.8309C45.9381 72.8309 46.0799 72.729 46.0799 72.5784C46.0799 72.0821 44.3076 72.441 44.3076 71.2801C44.3076 70.7263 44.7507 70.2699 45.69 70.2699C46.0849 70.263 46.475 70.356 46.8243 70.5402L46.554 71.1959C46.2832 71.0436 45.9786 70.9614 45.6679 70.9567C45.3001 70.9567 45.1628 71.0807 45.1628 71.2358C45.1628 71.7143 46.9351 71.3599 46.9351 72.5075C46.9351 73.0525 46.492 73.5177 45.5527 73.5177C45.0952 73.5272 44.6441 73.409 44.25 73.1765Z" fill="#E0E0E0"/>
<path d="M48.4367 72.6095L48.1842 72.8621V73.4558H47.3379V70.146H48.1842V71.8785L49.0703 71.0366H50.0717L49.0703 72.0734L50.1559 73.4558H49.1324L48.4367 72.6095Z" fill="#E0E0E0"/>
<path d="M50.2773 70.3184C50.2806 70.2547 50.2968 70.1923 50.325 70.135C50.3532 70.0778 50.3927 70.0269 50.4412 69.9854C50.4898 69.9439 50.5462 69.9128 50.6072 69.8939C50.6681 69.8749 50.7323 69.8686 50.7958 69.8753C50.8596 69.865 50.9249 69.8687 50.9871 69.8863C51.0494 69.9039 51.107 69.9349 51.156 69.9771C51.205 70.0193 51.2441 70.0718 51.2707 70.1307C51.2972 70.1897 51.3106 70.2538 51.3097 70.3184C51.2978 70.4471 51.2383 70.5666 51.1428 70.6537C51.0473 70.7407 50.9227 70.789 50.7935 70.789C50.6643 70.789 50.5398 70.7407 50.4443 70.6537C50.3488 70.5666 50.2893 70.4471 50.2773 70.3184ZM50.3704 71.0362H51.2167V73.4555H50.3704V71.0362Z" fill="#E0E0E0"/>
<path d="M54.4709 72.2459C54.482 72.4072 54.4594 72.5691 54.4048 72.7212C54.3501 72.8734 54.2645 73.0126 54.1533 73.13C54.0422 73.2474 53.9079 73.3405 53.7589 73.4034C53.6099 73.4663 53.4496 73.4976 53.2879 73.4954C53.1637 73.5015 53.0395 73.4822 52.923 73.4388C52.8064 73.3954 52.6999 73.3287 52.61 73.2428V74.3195H51.7637V71.0363H52.5701V71.2755C52.661 71.178 52.7728 71.1022 52.8971 71.0539C53.0214 71.0056 53.1549 70.9859 53.2879 70.9964C53.4496 70.9942 53.6099 71.0255 53.7589 71.0884C53.9079 71.1513 54.0422 71.2444 54.1533 71.3618C54.2645 71.4792 54.3501 71.6184 54.4048 71.7706C54.4594 71.9227 54.482 72.0846 54.4709 72.2459ZM53.6158 72.2459C53.6038 72.1476 53.5637 72.0548 53.5003 71.9787C53.4369 71.9027 53.3528 71.8466 53.2582 71.8171C53.1637 71.7877 53.0626 71.7863 52.9672 71.8129C52.8718 71.8396 52.7862 71.8932 52.7206 71.9674C52.655 72.0416 52.6122 72.1331 52.5973 72.231C52.5825 72.329 52.5963 72.4291 52.6371 72.5193C52.6778 72.6096 52.7438 72.6862 52.827 72.7399C52.9102 72.7935 53.0072 72.822 53.1062 72.8219C53.1789 72.8218 53.2507 72.8063 53.317 72.7764C53.3832 72.7465 53.4424 72.7029 53.4905 72.6485C53.5387 72.594 53.5747 72.53 53.5963 72.4606C53.6179 72.3912 53.6245 72.318 53.6158 72.2459Z" fill="#E0E0E0"/>
<path d="M58.3014 72.8488H56.9722L56.7241 73.4558H55.8379L57.2159 70.332H58.1021L59.4889 73.4558H58.5673L58.3014 72.8488ZM58.04 72.1974L57.6412 71.196L57.238 72.1974H58.04Z" fill="#E0E0E0"/>
<path d="M62.2199 70.146V73.4558H61.4135V73.2166C61.3235 73.3129 61.2132 73.3879 61.0906 73.4362C60.9679 73.4845 60.8361 73.5048 60.7046 73.4957C60.3732 73.4957 60.0554 73.3641 59.821 73.1297C59.5867 72.8954 59.4551 72.5776 59.4551 72.2462C59.4551 71.9148 59.5867 71.597 59.821 71.3627C60.0554 71.1284 60.3732 70.9967 60.7046 70.9967C60.8272 70.9894 60.95 71.0077 61.0652 71.0505C61.1804 71.0932 61.2854 71.1594 61.3736 71.2448V70.146H62.2199ZM61.3869 72.2418C61.3741 72.1436 61.3332 72.0512 61.2692 71.9757C61.2051 71.9002 61.1206 71.8448 61.0258 71.8162C60.931 71.7876 60.83 71.787 60.7349 71.8144C60.6397 71.8418 60.5545 71.8962 60.4895 71.9709C60.4246 72.0455 60.3825 72.1374 60.3685 72.2354C60.3544 72.3334 60.369 72.4334 60.4105 72.5233C60.4519 72.6133 60.5184 72.6893 60.602 72.7423C60.6857 72.7954 60.7828 72.8231 60.8818 72.8222C60.9545 72.8216 61.0263 72.8055 61.0924 72.7751C61.1584 72.7446 61.2172 72.7005 61.265 72.6457C61.3127 72.5908 61.3483 72.5264 61.3693 72.4568C61.3903 72.3872 61.3963 72.3139 61.3869 72.2418Z" fill="#E0E0E0"/>
<path d="M62.5762 73.2474L62.8287 72.667C63.0854 72.8126 63.3755 72.8889 63.6706 72.8885C63.9586 72.8885 64.0516 72.8265 64.0516 72.7246C64.0516 72.3967 62.6249 72.7689 62.6249 71.7985C62.6249 71.3554 63.0414 70.9965 63.8035 70.9965C64.1325 70.9899 64.4586 71.0596 64.7561 71.2004L64.5036 71.7764C64.2905 71.6593 64.0511 71.5983 63.8079 71.5991C63.5199 71.5991 63.418 71.6789 63.418 71.7675C63.418 72.1042 64.8403 71.7409 64.8403 72.7024C64.8403 73.1455 64.4327 73.4955 63.644 73.4955C63.2729 73.5036 62.9057 73.4183 62.5762 73.2474Z" fill="#E0E0E0"/>
</svg>
