<svg width="180" height="180" viewBox="0 0 180 180" fill="none" xmlns="http://www.w3.org/2000/svg">
<g clip-path="url(#clip0_114_5715)">
<path fill-rule="evenodd" clip-rule="evenodd" d="M92.4674 79.9809C90.4449 77.0776 88.3373 75.0738 86.6181 73.6363C70.1226 59.9536 51.3112 68.1613 37.286 80.6021C33.5263 83.9334 28.8893 90.3115 27.5823 96.4891C26.6622 100.83 27.3502 105.067 30.8793 108.215C34.7136 111.661 40.5273 112.356 46.7057 111.482C55.6427 110.225 65.3456 105.722 70.4766 102.291C76.3937 98.3326 84.8609 91.2424 92.2049 83.2587C94.1399 86.5619 95.8969 90.8367 96.9707 96.4393C97.4569 98.9278 97.3614 101.877 96.8358 104.969C92.0752 104.583 87.0256 105.12 81.8809 106.703C77.5582 108.039 69.0104 112.547 63.8371 118.028C60.1474 121.944 58.2052 126.363 60.1001 130.529C62.4608 135.699 66.7907 137.094 71.5465 136.439C78.2435 135.519 85.7981 130.372 89.1834 126.656C93.1197 122.331 96.7912 114.573 98.4104 107.161C114.428 109.314 126.593 122.574 126.475 140.811C126.477 141.353 126.922 141.803 127.467 141.818C128.022 141.817 128.477 141.364 128.475 140.821C128.596 121.526 115.742 107.469 98.7955 105.172C99.347 101.879 99.4522 98.7193 98.9349 96.06C97.748 89.8891 95.7724 85.2404 93.6079 81.7078C94.9582 80.1888 96.2615 78.6404 97.4975 77.072C103.052 70.0311 107.119 62.7141 107.587 56.5339C108.67 42.2526 99.3913 32.3239 87.2423 27.6004C75.2078 22.9264 60.3967 23.3858 50.3414 29.6609C49.8728 29.9538 49.7266 30.577 50.0211 31.0416C50.3157 31.5062 50.9316 31.6514 51.4 31.3584C60.9687 25.3865 75.0721 25.0063 86.5166 29.4647C97.8469 33.8736 106.601 43.0646 105.596 56.3773C105.14 62.262 101.205 69.1416 95.9264 75.8347C94.8272 77.2286 93.6714 78.609 92.4674 79.9809ZM96.4492 106.958C91.991 106.63 87.2756 107.137 82.464 108.624C78.3493 109.895 70.2257 114.169 65.2879 119.407C62.2271 122.654 60.3437 126.244 61.9231 129.694C63.84 133.916 67.4036 134.986 71.2779 134.453C77.5114 133.613 84.5492 128.772 87.7074 125.305C91.4076 121.244 94.8992 113.937 96.4492 106.958ZM91.0969 81.5089C89.1152 78.5878 87.029 76.5972 85.3396 75.1782C69.7014 62.2022 51.9081 70.3073 38.613 82.0986C35.1098 85.1999 30.7639 91.1316 29.5379 96.905C28.776 100.521 29.2649 104.094 32.2124 106.728C35.6472 109.818 40.8885 110.287 46.4214 109.509C55.0463 108.295 64.4175 103.932 69.3664 100.626C75.2838 96.6681 83.7862 89.535 91.0969 81.5089Z" fill="black"/>
<path fill-rule="evenodd" clip-rule="evenodd" d="M127.383 139.899C126.769 139.084 124.993 136.745 124.715 136.399C123.93 135.435 123.4 135.062 122.819 134.744C122.349 134.494 121.827 134.299 121.007 133.725C120.559 133.402 119.928 133.529 119.613 133.983C119.299 134.436 119.418 135.051 119.866 135.374C120.616 135.884 121.134 136.141 121.591 136.36C122.113 136.62 122.506 136.843 123.163 137.663C123.486 138.059 125.044 140.456 125.971 141.401C126.453 141.896 126.929 142.084 127.184 142.091C127.55 142.102 127.977 141.978 128.422 141.649C128.992 141.224 129.702 140.368 130.519 139.426C131.285 138.539 132.171 137.554 133.188 136.845C134.047 136.254 134.996 135.87 136.061 136.057C136.603 136.156 137.12 135.806 137.22 135.263C137.32 134.719 136.961 134.193 136.419 134.094C134.82 133.791 133.351 134.305 132.049 135.205C130.896 136.003 129.881 137.103 129.007 138.117C128.482 138.721 128.011 139.294 127.599 139.709C127.534 139.776 127.458 139.838 127.383 139.899Z" fill="black"/>
</g>
<defs>
<clipPath id="clip0_114_5715">
<rect width="130" height="130" fill="white" transform="translate(0 110.38) rotate(-58.1114)"/>
</clipPath>
</defs>
</svg>
