<svg xmlns="http://www.w3.org/2000/svg" fill="none" viewBox="0 0 95 61">
  <g fill="#FE2B33" fill-rule="evenodd" clip-path="url(#a)" clip-rule="evenodd">
    <path d="M22.496 21.506c-.02-.412-.041-.826-.065-1.24-.25-4.217-.48-8.42-.433-12.635.011-1.02.065-2.971-.37-4.425-.31-1.04-.858-1.88-1.575-2.426-.456-.348-1.244-.732-2.269-.273a3.125 3.125 0 0 0-.732.49c-.47.411-1.209 1.251-1.305 1.374-1.398 1.782-2.728 3.493-3.972 5.392-1.145 1.747-2.39 3.42-3.51 5.185-1.678 2.642-3.147 5.328-4.33 8.248-.439 1.084.1 2.362 1.203 2.853 1.1.49 2.352.008 2.79-1.076 1.09-2.69 2.446-5.158 3.993-7.59 1.11-1.75 2.344-3.408 3.479-5.14a54.872 54.872 0 0 1 2.307-3.227l-.007.37c-.048 4.317.184 8.62.44 12.939.095 1.616.14 3.227.26 4.843-.025.167-.136.933-.125 1.243.016.515.164.938.344 1.252.458.798 1.166 1.356 2.384 1.222.913-.1 1.918-.656 2.81-1.618 1.229-1.321 2.367-3.532 3.019-4.426 4.125-5.66 7.806-11.715 12.366-17.035.756-.881.627-2.246-.287-3.045-.915-.799-2.271-.733-3.026.15-4.63 5.4-8.376 11.537-12.564 17.282-.222.307-.503.778-.825 1.313ZM55.978 13.492c-2.229-1.288-4.404-2.638-6.98-2.859-2.695-.23-5.19.82-7.392 2.555-2.808 2.213-5.135 5.56-6.836 7.905-.88 1.214-2.252 2.765-3.2 4.4-.815 1.406-1.32 2.886-1.28 4.304.061 2.227 1.7 4.044 4.166 5.094 2.848 1.214 6.704 1.367 8.31.83 1.11-.37 1.67-1.59 1.249-2.723-.42-1.132-1.662-1.75-2.772-1.38-1.019.34-3.455.08-5.262-.689-.404-.172-.776-.37-1.07-.617-.154-.127-.316-.247-.322-.436-.025-.931.54-1.854 1.143-2.756.839-1.258 1.863-2.428 2.556-3.383 1.52-2.097 3.557-5.128 6.068-7.108 1.347-1.061 2.823-1.834 4.473-1.693 1.914.164 3.473 1.314 5.13 2.273 1.049.607 2.352.266 2.908-.76.558-1.025.159-2.35-.89-2.957Z"/>
    <path d="M48.133 21.356c-2.069-.617-4.252-1.305-6.216-2.227-1.084-.508-2.338-.063-2.8.994-.461 1.058.044 2.33 1.127 2.838 2.163 1.016 4.562 1.787 6.839 2.466 1.141.34 2.304-.295 2.593-1.418.29-1.124-.401-2.311-1.543-2.653ZM66.195 39.978c.139-2.442.191-4.926.066-7.364-.01-.198-.317-2.47-.716-3.597-.27-.76-.684-1.252-.976-1.488-.852-.687-1.721-.745-2.588-.241-.83.482-1.568 1.11-2.253 1.816.857-3.213 1.87-6.39 3.409-9.275.127-.239.168-.368.176-.39.228-.672.07-1.128.02-1.297-.246-.829-.783-1.25-1.365-1.473-.07-.028-1.634-.633-2.533.826-.073.118-.56.984-.77 1.305-.18.28-.284.589-.317.904-1.798 4.028-2.862 8.448-3.93 12.737a10.7 10.7 0 0 1-1.013 2.626c-.134.242-.533.696-.693.953-.271.436-.35.827-.372 1.046-.11 1.138.455 1.814 1.195 2.214.317.171.969.494 1.939.098 2.18-.888 3.758-2.673 5.23-4.588.435-.566.856-1.146 1.3-1.693.11 2.687 0 5.424-.19 8.084-.02.292-.069 3.086.084 3.657.38 1.431 1.485 1.706 2.024 1.755.824.073 1.81-.217 2.75-.892 1.215-.875 2.477-2.479 3.03-3.08 3.72-4.044 7.565-8.315 10.37-13.069.589-.997.234-2.322-.791-2.958-1.026-.635-2.336-.34-2.924.657-2.664 4.514-6.336 8.552-9.869 12.392-.081.088-.18.203-.293.335ZM85.254 32.066c-1.994 3.227-3.964 6.431-6.229 9.54-.688.945-.459 2.309.512 3.045.971.735 2.318.567 3.006-.378 3.195-4.384 5.816-8.95 8.724-13.514 1.124-1.762-.53-2.979-.635-3.051-.229-.159-1.514-.987-2.714.188-.073.071-.524.643-.71.854a20.11 20.11 0 0 1-1.344 1.366 2.095 2.095 0 0 0-.61 1.95ZM74.073 51.958a2.017 2.017 0 0 0 1.098-1.662c.086-1.174-.8-2.24-1.98-2.381-1.089-.13-1.77.339-2.375 1.133-.701.919-.497 2.27.456 3.012.87.68 2.068.618 2.801-.102ZM16.417 53.783c.154-.48.273-.862.296-.947 1.07-4.032 1.98-8.15 2.639-12.288.184-1.16-.615-2.293-1.783-2.53-1.169-.238-2.266.51-2.45 1.67-.635 3.997-1.518 7.977-2.551 11.874-.079.297-1.018 2.706-1.196 3.917-.16 1.098.199 1.895.487 2.267.458.59 1.464 1.215 2.97 1.008 1.967-.268 6.01-2.161 6.68-2.476 1.232-.582 2.454-1.26 3.629-1.933 2.229-1.276 4.27-2.795 6.294-4.358.916-.707 1.05-2.05.301-3-.75-.948-2.1-1.144-3.015-.437-1.877 1.45-3.766 2.866-5.833 4.05-1.085.62-2.212 1.248-3.348 1.785-.341.16-1.727.846-3.12 1.398Z"/>
  </g>
  <defs>
    <clipPath id="a">
      <path fill="#fff" d="M0 0h95v61H0z"/>
    </clipPath>
  </defs>
</svg>