<svg xmlns="http://www.w3.org/2000/svg" width="118" height="118" viewBox="0 0 118 118" fill="none">
<g clip-path="url(#clip0_114_5163)">
<path fill-rule="evenodd" clip-rule="evenodd" d="M98.9933 31.9039C87.3823 69.7913 53.3719 91.0113 15.3895 78.5228C14.125 78.1069 12.7628 78.7945 12.3441 80.0449C11.9294 81.3154 12.6172 82.6796 13.8817 83.0955C54.5974 96.5003 91.1537 73.9199 103.602 33.3231C103.993 32.0574 103.275 30.699 102.003 30.3055C100.734 29.9321 99.384 30.6382 98.9933 31.9039Z" fill="#343146"/>
<path d="M41.2178 58.1334C45.0206 57.3782 47.4912 53.6833 46.736 49.8806C45.9808 46.0778 42.2858 43.6074 38.4831 44.3626C34.6803 45.1178 32.2099 48.8126 32.965 52.6154C33.7202 56.4181 37.4151 58.8886 41.2178 58.1334Z" fill="#343146"/>
<path d="M68.2681 45.1483C71.9965 44.4079 74.4188 40.7852 73.6784 37.0568C72.9379 33.3284 69.3152 30.9062 65.5868 31.6466C61.8584 32.3871 59.4362 36.0097 60.1766 39.7381C60.917 43.4665 64.5397 45.8887 68.2681 45.1483Z" fill="#343146"/>
</g>
<defs>
<clipPath id="clip0_114_5163">
<rect width="100" height="100" fill="white" transform="translate(0 19.479) rotate(-11.2324)"/>
</clipPath>
</defs>
</svg>