<svg width="78" height="73" viewBox="0 0 78 73" fill="none" xmlns="http://www.w3.org/2000/svg">
<path fill-rule="evenodd" clip-rule="evenodd" d="M9.96962 33.7545C10.1306 27.9197 9.46934 22.0191 8.78623 16.3056C8.63504 15.0761 7.53009 14.1767 6.3436 14.3841C5.13487 14.5065 4.28253 15.6264 4.41234 16.7708C5.07908 22.3073 5.74078 28.0256 5.57268 33.5907C5.5313 34.7781 6.48831 35.8058 7.70489 35.8625C8.92062 35.9194 9.92738 34.9421 9.96962 33.7545Z" fill="#FA8214"/>
<path fill-rule="evenodd" clip-rule="evenodd" d="M35.8058 44.8315C42.5552 33.8113 47.8743 21.9733 54.9068 11.0632C55.5728 10.0811 55.2766 8.70688 54.2613 8.05642C53.2452 7.40618 51.8748 7.66007 51.2302 8.72732C44.1714 19.6441 38.8267 31.4885 32.0508 42.5153C31.4266 43.5774 31.7568 44.9427 32.795 45.5874C33.8111 46.1471 35.1815 45.8936 35.8058 44.8315Z" fill="#FA8214"/>
<path fill-rule="evenodd" clip-rule="evenodd" d="M74.3659 52.6242C69.3063 54.1662 64.2466 55.7077 59.1861 57.25C58.0125 57.5447 57.363 58.7947 57.7195 59.9728C58.0768 61.1506 59.2895 61.7509 60.464 61.456C65.5321 59.9119 70.5995 58.3684 75.6668 56.8245C76.819 56.4446 77.4626 55.1964 77.0993 54.0201C76.7575 52.9289 75.5173 52.2446 74.3659 52.6242Z" fill="#FA8214"/>
</svg>
