<svg xmlns="http://www.w3.org/2000/svg" fill="none" viewBox="0 0 270 49">
  <path fill="#010101" d="M136.536 2.679c2.758-.833 5.523-1.673 8.294-2.52.013 3.266.033 6.532.059 9.796 5.549.017 11.098.022 16.647.016a509.754 509.754 0 0 1 5.517 16.382c1.698-5.461 3.399-10.927 5.104-16.398 2.272 0 4.543.016 6.815.016 1.798 5.347 3.437 10.739 5.192 16.086 1.915-5.334 3.696-10.71 5.536-16.074 2.947 0 5.91 0 8.872.029-3.569 10.374-7.09 20.776-10.955 31.051l-7.045.042c-1.697-5.023-3.32-10.079-4.988-15.13-1.726 5.039-3.323 10.12-5.046 15.146a830.266 830.266 0 0 0-6.886-.099c-3.365-8.982-6.341-18.11-9.778-27.054-.071.953-.185 2.86-.259 3.812h-8.811c.273 4.21-.892 9.25 2.457 12.614 1.509 2.056 4.218 2.364 6.49 3.21a635.956 635.956 0 0 1-.101 8.403c-7.765-.705-15.527-5.827-16.764-13.767-.853-8.486-.165-17.046-.35-25.561ZM59.176 11.334c6.928-3.855 15.842-.801 20.33 5.223-2.213 1.477-4.442 2.97-6.685 4.448-3.45-2.799-9.342-4.095-12.448-.124-4.472 4.305-.36 12.808 5.841 12.217 2.687.14 4.758-1.703 6.9-2.97 2.087 1.465 4.173 2.924 6.256 4.377-5.134 8.827-19.38 9.303-25.59 1.367-6.968-7.378-3.934-20.567 5.396-24.538Z"/>
  <path fill="#010101" d="M89.264 11.054c4.028-2.126 8.655-1.465 12.825-.156.649-.353 1.928-1.07 2.573-1.436 2.243 0 4.485.041 6.714.057.059 10.56.059 21.12 0 31.684-3.063-.127-6.123-.353-9.157-.76-7.302 2.479-16.447.452-20.373-6.475-5.26-7.813-1.45-19.48 7.418-22.914Zm3.424 7.755c-5.017 1.688-6.24 8.897-2.272 12.258 4.384 4.766 13.773.734 12.767-5.74.337-5.18-5.897-8.462-10.495-6.518ZM119.298 16.557c3.478-4.633 9.17-7.08 14.908-7.572.015 2.729.024 5.459.029 8.191-3.998 1.084-8.438 2.901-9.603 7.248-.85 5.49-.259 11.092-.431 16.623-2.833 0-5.65.016-8.483.016.458-8.15-2.07-17.551 3.58-24.506ZM200.165 11.756a847.521 847.521 0 0 1 8.113-2.913c.302 10.768.101 21.548.071 32.316l-8.181-.041c-.032-9.796-.019-19.579-.003-29.362ZM213.821 24.497c-3.332-5.548.088-13.065 6.254-14.85 4.89-.706 9.865-.268 14.781-.296v8.642c-4.085-.016-8.168-.184-12.221.14-.324.677-.934 2.014-1.249 2.675 3.865.55 8.466.083 11.283 3.266 5.364 4.728 3.122 14.851-3.965 16.735-5.494 1.271-11.229.493-16.823.677v-8.712c4.845 0 9.706 0 14.564-.057.071-.636.214-1.888.289-2.507-4.861 0-10.469-1.097-12.913-5.713ZM246.82 30.07c1.133-.067 2.272-.12 3.417-.152 2.272-.073 4.544-.108 6.815-.108 4.316 0 8.645.053 12.961-.02-.305-4.162-.185-8.702-2.596-12.35-2.878-4.645-8.249-7.44-13.707-7.819-6.549.464-12.981 4.54-15.074 10.803-3.569 8.5 2.759 19.105 11.975 20.589 5.438 1.213 10.809-1.046 14.973-4.379-1.947-1.827-3.895-3.657-5.887-5.474a9.841 9.841 0 0 1-6.651 1.863 9.778 9.778 0 0 1-6.226-2.953Zm.419-8.874a6.814 6.814 0 0 1 2.613-2.95 7.026 7.026 0 0 1 3.841-1.047 7.02 7.02 0 0 1 3.794 1.202 6.806 6.806 0 0 1 2.486 3.052c.032.054.074.108.107.162h-.055c-4.294 0-8.577.023-12.874-.216h-.142a1.81 1.81 0 0 1 .23-.203Z"/>
  <path fill="url(#a)" d="M22.55 24.242h-.159C9.84 24.665-.325 35.755.591 48.038c.061.836.324 1.007 1.132.953 6.331-.413 11.605-2.923 15.924-7.558a22.157 22.157 0 0 0 4.48-7.527 21.828 21.828 0 0 0 1.186-8.633c0-.14 0-.276-.02-.4.116.006.232.006.348 0 6.328-.413 11.6-2.927 15.92-7.562a22.168 22.168 0 0 0 4.48-7.527 21.84 21.84 0 0 0 1.19-8.633C45.2.565 45.262.09 44.295.12 31.753.544 21.58 11.633 22.508 23.916c.006.11.02.22.042.328Z"/>
  <path fill="url(#b)" d="M16.947 7.448c4.192 4.746 6.117 10.17 5.789 16.382-.042.79-.247 1.026-1.1.988C9.067 24.249-.973 13.055.076.813.155-.133.65 0 1.23.03c2.99.161 5.918.9 8.615 2.173a22.677 22.677 0 0 1 7.102 5.246Z"/>
  <defs>
    <linearGradient id="a" x1="12.961" x2="42.964" y1="-12.603" y2="-11.137" gradientUnits="userSpaceOnUse">
      <stop stop-color="#509A45"/>
      <stop offset="1" stop-color="#70DD00"/>
    </linearGradient>
    <linearGradient id="b" x1="6.325" x2="21.595" y1="-6.453" y2="-5.705" gradientUnits="userSpaceOnUse">
      <stop stop-color="#509A45"/>
      <stop offset="1" stop-color="#70DD00"/>
    </linearGradient>
  </defs>
</svg>